<svg width="24" height="24" viewBox="0 0 24 24" fill="none" xmlns="http://www.w3.org/2000/svg">
<mask id="mask0_376_3188" style="mask-type:luminance" maskUnits="userSpaceOnUse" x="0" y="0" width="24" height="24">
<path d="M0 1.90735e-06H24V24H0V1.90735e-06Z" fill="white"/>
</mask>
<g mask="url(#mask0_376_3188)">
<path d="M6.35156 13.3081C6.35156 12.4168 7.07409 11.6943 7.96542 11.6943C8.8567 11.6943 9.57923 12.4168 9.57923 13.3081" stroke="#0B0B0B" stroke-width="1.5" stroke-miterlimit="10"/>
<path d="M14.4209 13.3081C14.4209 12.4168 15.1434 11.6943 16.0347 11.6943C16.926 11.6943 17.6486 12.4168 17.6486 13.3081" stroke="#0B0B0B" stroke-width="1.5" stroke-miterlimit="10"/>
<path d="M9.21875 16.5359C9.78017 17.4873 10.8152 18.126 11.9999 18.126C13.1846 18.126 14.2196 17.4873 14.781 16.5359" stroke="#0B0B0B" stroke-width="1.5" stroke-miterlimit="10"/>
<path d="M23.2969 13.0268C23.2969 14.3477 22.2389 15.4216 20.9236 15.4464C19.8605 19.3779 16.268 22.2705 12 22.2705C7.73203 22.2705 4.13953 19.3779 3.07641 15.4464C1.76109 15.4216 0.703125 14.3477 0.703125 13.0268C0.703125 12.3583 0.974062 11.7532 1.41187 11.3149C1.83984 10.8874 2.42672 10.6193 3.07641 10.6071C4.13953 6.67566 7.73203 3.78301 12 3.78301C16.268 3.78301 19.8605 6.67566 20.9236 10.6071C21.5733 10.6193 22.1602 10.8874 22.5881 11.3149C23.0259 11.7532 23.2969 12.3583 23.2969 13.0268Z" stroke="#0B0B0B" stroke-width="1.5" stroke-miterlimit="10"/>
<path d="M8.99212 6.7913C8.99212 8.4526 10.3388 9.79932 12.0001 9.79932C13.6614 9.79932 15.0082 8.4526 15.0082 6.7913C15.0082 5.13 13.6614 3.78329 12.0001 3.78329H11.5287C10.0065 3.78329 8.77246 2.54925 8.77246 1.02699" stroke="#0B0B0B" stroke-width="1.5" stroke-miterlimit="10"/>
<path d="M12.0003 3.7832H8.30117C6.77891 3.7832 5.54492 2.54917 5.54492 1.02695" stroke="#0B0B0B" stroke-width="1.5" stroke-miterlimit="10"/>
</g>
</svg>
