<svg width="24" height="25" viewBox="0 0 24 25" fill="none" xmlns="http://www.w3.org/2000/svg">
<path d="M15.1209 11.1952C15.1209 12.9152 13.7309 14.3152 12.0009 14.3152C10.2709 14.3152 8.88086 12.9252 8.88086 11.1952C8.88086 9.4652 10.2809 8.0752 12.0009 8.0752C12.3409 8.0752 12.6709 8.1252 12.9709 8.2252" stroke="black" stroke-width="1.5" stroke-linecap="round" stroke-linejoin="round"/>
<path d="M8.87914 11.1945C8.87914 9.47445 10.2691 8.07445 11.9991 8.07445C13.7291 8.07445 15.1191 9.46445 15.1191 11.1945C15.1191 12.9245 13.7191 14.3145 11.9991 14.3145C11.6591 14.3145 11.3291 14.2645 11.0291 14.1645" stroke="black" stroke-width="1.5" stroke-linecap="round" stroke-linejoin="round"/>
<path d="M5.98094 5.18483C10.3509 1.07483 18.8209 2.48483 20.3809 9.39483C21.5309 14.4748 18.3709 18.7748 15.6009 21.4348C13.5909 23.3748 10.4109 23.3748 8.39094 21.4348C5.63094 18.7648 2.46094 14.4648 3.62094 9.38483" stroke="black" stroke-width="1.5" stroke-linecap="round" stroke-linejoin="round"/>
</svg>
