<svg width="43" height="24" viewBox="0 0 43 24" fill="none" xmlns="http://www.w3.org/2000/svg">
<path d="M21.2805 23.141C28.021 17.3634 37.4898 11.7463 42.6896 9.72417C41.8871 9.21061 40.6353 8.47236 39.223 7.66992C32.5146 9.88465 24.6828 14.7956 17.6855 20.3485C18.8732 21.2472 20.125 22.178 21.2805 23.141Z" fill="#E31837"/>
<path d="M18.2 7.44686C17.2049 6.9654 16.1136 6.51603 15.2791 6.13086C12.7434 7.38266 9.43733 9.27642 5.26465 12.2615C6.16338 12.743 7.12631 13.3207 8.15343 13.8985C11.3632 11.5233 14.605 9.27642 18.2 7.44686Z" fill="#012169"/>
<path d="M24.2017 4.6865C22.982 4.01246 18.7451 2.43967 15.8242 1.76562C14.9576 2.0866 13.7379 2.56806 12.9033 2.92114C13.9625 3.21002 17.9105 4.26924 21.2808 5.97041C22.1474 5.55314 23.3671 5.03958 24.2017 4.6865Z" fill="#E31837"/>
<path d="M9.85396 4.26953C6.09854 6.0028 2.15054 8.37802 0 9.75822C0.770342 10.1113 1.54068 10.4002 2.5999 10.9137C7.35034 7.70397 11.0737 5.74602 12.5501 5.10407C11.4909 4.7189 10.4959 4.46212 9.85396 4.26953Z" fill="#012169"/>
<path d="M27.0262 3.69122C27.8929 3.40234 28.8879 3.14556 29.7545 2.88878C27.2509 1.82956 24.1054 0.706147 21.2808 0C20.8314 0.12839 19.4833 0.481464 18.5525 0.770342C19.5154 1.05922 22.6931 1.79746 27.0262 3.69122ZM11.2021 15.7599C12.2293 16.3698 13.3206 17.2043 14.3798 17.9104C21.4092 12.4539 28.3422 8.24908 35.9494 5.87386C34.8901 5.3282 33.9593 4.84673 32.7717 4.26898C28.2138 5.42449 20.4142 8.53795 11.2021 15.7599Z" fill="#E31837"/>
</svg>
