<svg width="52" height="52" viewBox="0 0 52 52" fill="none" xmlns="http://www.w3.org/2000/svg">
<rect x="0.5" y="0.5" width="51" height="51" rx="7.5" fill="white" stroke="#E8ECF4"/>
<g clip-path="url(#clip0_7_88)">
<path d="M20.6685 38.5133C20.1559 38.1722 19.7016 37.7508 19.323 37.2653C18.9066 36.7641 18.5208 36.2383 18.1677 35.6906C17.339 34.4766 16.6891 33.1498 16.238 31.7508C15.696 30.1258 15.4336 28.5683 15.4336 27.0448C15.4336 25.3435 15.8017 23.8582 16.5215 22.6102C17.0552 21.6348 17.8397 20.8196 18.7941 20.2491C19.719 19.6746 20.7817 19.3602 21.8702 19.3391C22.2513 19.3391 22.6616 19.3943 23.0971 19.5C23.4099 19.5885 23.791 19.7283 24.2565 19.9021C24.8488 20.1305 25.1747 20.2702 25.2852 20.3043C25.6321 20.4311 25.9238 20.4863 26.1529 20.4863C26.3268 20.4863 26.5722 20.4311 26.8508 20.3466C27.0077 20.2913 27.3034 20.1938 27.7267 20.0126C28.146 19.8599 28.4758 19.7291 28.7383 19.6316C29.1405 19.513 29.5297 19.4033 29.8766 19.348C30.2879 19.2832 30.7053 19.266 31.1205 19.2968C31.8401 19.3439 32.5488 19.4963 33.2241 19.7494C34.3283 20.1938 35.2212 20.8877 35.8858 21.8741C35.6049 22.0472 35.3413 22.2469 35.0985 22.4705C34.5701 22.9389 34.12 23.4889 33.7652 24.0995C33.3015 24.934 33.0611 25.8741 33.0673 26.8287C33.0843 28.0011 33.385 29.0338 33.9773 29.9268C34.4127 30.5886 34.9787 31.1545 35.6405 31.59C35.9793 31.8183 36.271 31.9751 36.5505 32.0807C36.4197 32.487 36.2799 32.8802 36.115 33.2702C35.7409 34.1448 35.2875 34.9833 34.7605 35.7751C34.2909 36.4568 33.9228 36.9646 33.6433 37.3026C33.2078 37.8186 32.7886 38.2126 32.3653 38.4873C31.8997 38.796 31.3497 38.961 30.7907 38.961C30.4121 38.9755 30.0336 38.9297 29.6694 38.8253C29.3566 38.7196 29.047 38.6051 28.7423 38.4743C28.4256 38.3288 28.099 38.2058 27.7649 38.1062C26.9392 37.8941 26.0734 37.8927 25.247 38.1021C24.9082 38.1996 24.5823 38.3134 24.2606 38.4531C23.808 38.6433 23.5074 38.7708 23.3335 38.8253C22.9866 38.9268 22.6267 38.9902 22.2627 39.0113C21.6996 39.0113 21.1747 38.8505 20.6547 38.5246L20.6685 38.5133ZM28.0948 18.5136C27.3587 18.8816 26.6558 19.0385 25.9579 18.9873C25.8482 18.2845 25.9579 17.5654 26.2496 16.7781C26.4979 16.1111 26.8648 15.4945 27.3327 14.9581C27.8267 14.3934 28.4261 13.9306 29.0974 13.5955C29.8124 13.2275 30.4941 13.0284 31.1457 12.9991C31.2302 13.7353 31.1457 14.4592 30.8752 15.2416C30.6248 15.9333 30.2585 16.5773 29.7921 17.1461C29.316 17.7116 28.7318 18.1762 28.0737 18.5128L28.0948 18.5136Z" fill="black"/>
</g>
<defs>
<clipPath id="clip0_7_88">
<rect width="26" height="26" fill="white" transform="translate(13 13)"/>
</clipPath>
</defs>
</svg>
