<svg width="24" height="24" viewBox="0 0 24 24" fill="none" xmlns="http://www.w3.org/2000/svg">
<mask id="mask0_1726_3321" style="mask-type:luminance" maskUnits="userSpaceOnUse" x="0" y="0" width="24" height="24">
<path d="M0 1.90735e-06H24V24H0V1.90735e-06Z" fill="white"/>
</mask>
<g mask="url(#mask0_1726_3321)">
<path d="M6.35156 13.3077C6.35156 12.4165 7.07409 11.6939 7.96542 11.6939C8.8567 11.6939 9.57923 12.4165 9.57923 13.3077" stroke="#0B0B0B" stroke-width="1.5" stroke-miterlimit="10"/>
<path d="M14.4209 13.3077C14.4209 12.4165 15.1434 11.6939 16.0347 11.6939C16.926 11.6939 17.6486 12.4165 17.6486 13.3077" stroke="#0B0B0B" stroke-width="1.5" stroke-miterlimit="10"/>
<path d="M9.21875 16.5354C9.78017 17.4868 10.8152 18.1255 11.9999 18.1255C13.1846 18.1255 14.2196 17.4868 14.781 16.5354" stroke="#0B0B0B" stroke-width="1.5" stroke-miterlimit="10"/>
<path d="M23.2969 13.0265C23.2969 14.3475 22.2389 15.4214 20.9236 15.4462C19.8605 19.3776 16.268 22.2703 12 22.2703C7.73203 22.2703 4.13953 19.3776 3.07641 15.4462C1.76109 15.4214 0.703125 14.3475 0.703125 13.0265C0.703125 12.3581 0.974062 11.7529 1.41187 11.3146C1.83984 10.8871 2.42672 10.619 3.07641 10.6068C4.13953 6.67542 7.73203 3.78276 12 3.78276C16.268 3.78276 19.8605 6.67542 20.9236 10.6068C21.5733 10.619 22.1602 10.8871 22.5881 11.3146C23.0259 11.7529 23.2969 12.3581 23.2969 13.0265Z" stroke="#0B0B0B" stroke-width="1.5" stroke-miterlimit="10"/>
<path d="M8.99212 6.79081C8.99212 8.45211 10.3388 9.79883 12.0001 9.79883C13.6614 9.79883 15.0082 8.45211 15.0082 6.79081C15.0082 5.12952 13.6614 3.7828 12.0001 3.7828H11.5287C10.0065 3.7828 8.77246 2.54877 8.77246 1.0265" stroke="#0B0B0B" stroke-width="1.5" stroke-miterlimit="10"/>
<path d="M12.0003 3.78296H8.30117C6.77891 3.78296 5.54492 2.54893 5.54492 1.02671" stroke="#0B0B0B" stroke-width="1.5" stroke-miterlimit="10"/>
</g>
</svg>
