<svg width="41" height="41" viewBox="0 0 41 41" fill="none" xmlns="http://www.w3.org/2000/svg">
<rect x="0.5" y="0.5" width="40" height="40" rx="11.5" fill="white" stroke="#E8ECF4"/>
<g clip-path="url(#clip0_138_844)">
<path d="M29 21.75C29.4142 21.75 29.75 21.4142 29.75 21C29.75 20.5858 29.4142 20.25 29 20.25V21.75ZM10.2605 20.4697C9.96764 20.7626 9.96764 21.2374 10.2605 21.5303L15.0335 26.3033C15.3264 26.5962 15.8013 26.5962 16.0942 26.3033C16.3871 26.0104 16.3871 25.5355 16.0942 25.2426L11.8515 21L16.0942 16.7574C16.3871 16.4645 16.3871 15.9896 16.0942 15.6967C15.8013 15.4038 15.3264 15.4038 15.0335 15.6967L10.2605 20.4697ZM29 20.25L10.7909 20.25V21.75L29 21.75V20.25Z" fill="#0B0B0B"/>
</g>
<defs>
<clipPath id="clip0_138_844">
<rect width="19" height="19" fill="white" transform="translate(10 11)"/>
</clipPath>
</defs>
</svg>
