<svg width="25" height="25" viewBox="0 0 25 25" fill="none" xmlns="http://www.w3.org/2000/svg">
<path d="M8.75 6.6875C8.34 6.6875 8 6.3475 8 5.9375V2.9375C8 2.5275 8.34 2.1875 8.75 2.1875C9.16 2.1875 9.5 2.5275 9.5 2.9375V5.9375C9.5 6.3475 9.16 6.6875 8.75 6.6875Z" fill="#5E5F60"/>
<path d="M16.75 6.6875C16.34 6.6875 16 6.3475 16 5.9375V2.9375C16 2.5275 16.34 2.1875 16.75 2.1875C17.16 2.1875 17.5 2.5275 17.5 2.9375V5.9375C17.5 6.3475 17.16 6.6875 16.75 6.6875Z" fill="#5E5F60"/>
<path d="M9.25 15.4376C9.12 15.4376 8.99 15.4076 8.87 15.3576C8.74 15.3076 8.64 15.2376 8.54 15.1476C8.36 14.9576 8.25 14.7076 8.25 14.4376C8.25 14.3076 8.28 14.1776 8.33 14.0576C8.38 13.9376 8.45 13.8276 8.54 13.7276C8.64 13.6376 8.74 13.5676 8.87 13.5176C9.23 13.3676 9.68 13.4476 9.96 13.7276C10.14 13.9176 10.25 14.1776 10.25 14.4376C10.25 14.4976 10.24 14.5676 10.23 14.6376C10.22 14.6976 10.2 14.7576 10.17 14.8176C10.15 14.8776 10.12 14.9376 10.08 14.9976C10.05 15.0476 10 15.0976 9.96 15.1476C9.77 15.3276 9.51 15.4376 9.25 15.4376Z" fill="#5E5F60"/>
<path d="M12.75 15.4375C12.62 15.4375 12.49 15.4075 12.37 15.3575C12.24 15.3075 12.14 15.2375 12.04 15.1475C11.86 14.9575 11.75 14.7075 11.75 14.4375C11.75 14.3075 11.78 14.1775 11.83 14.0575C11.88 13.9375 11.95 13.8275 12.04 13.7275C12.14 13.6375 12.24 13.5675 12.37 13.5175C12.73 13.3575 13.18 13.4475 13.46 13.7275C13.64 13.9175 13.75 14.1775 13.75 14.4375C13.75 14.4975 13.74 14.5675 13.73 14.6375C13.72 14.6975 13.7 14.7575 13.67 14.8175C13.65 14.8775 13.62 14.9375 13.58 14.9975C13.55 15.0475 13.5 15.0975 13.46 15.1475C13.27 15.3275 13.01 15.4375 12.75 15.4375Z" fill="#5E5F60"/>
<path d="M16.25 15.4375C16.12 15.4375 15.99 15.4075 15.87 15.3575C15.74 15.3075 15.64 15.2375 15.54 15.1475C15.5 15.0975 15.46 15.0475 15.42 14.9975C15.38 14.9375 15.35 14.8775 15.33 14.8175C15.3 14.7575 15.28 14.6975 15.27 14.6375C15.26 14.5675 15.25 14.4975 15.25 14.4375C15.25 14.1775 15.36 13.9175 15.54 13.7275C15.64 13.6375 15.74 13.5675 15.87 13.5175C16.24 13.3575 16.68 13.4475 16.96 13.7275C17.14 13.9175 17.25 14.1775 17.25 14.4375C17.25 14.4975 17.24 14.5675 17.23 14.6375C17.22 14.6975 17.2 14.7575 17.17 14.8175C17.15 14.8775 17.12 14.9375 17.08 14.9975C17.05 15.0475 17 15.0975 16.96 15.1475C16.77 15.3275 16.51 15.4375 16.25 15.4375Z" fill="#5E5F60"/>
<path d="M9.25 18.9374C9.12 18.9374 8.99 18.9075 8.87 18.8575C8.75 18.8075 8.64 18.7374 8.54 18.6474C8.36 18.4574 8.25 18.1974 8.25 17.9374C8.25 17.8074 8.28 17.6774 8.33 17.5574C8.38 17.4274 8.45 17.3175 8.54 17.2275C8.91 16.8575 9.59 16.8575 9.96 17.2275C10.14 17.4175 10.25 17.6774 10.25 17.9374C10.25 18.1974 10.14 18.4574 9.96 18.6474C9.77 18.8274 9.51 18.9374 9.25 18.9374Z" fill="#5E5F60"/>
<path d="M12.75 18.9374C12.49 18.9374 12.23 18.8274 12.04 18.6474C11.86 18.4574 11.75 18.1974 11.75 17.9374C11.75 17.8074 11.78 17.6774 11.83 17.5574C11.88 17.4274 11.95 17.3175 12.04 17.2275C12.41 16.8575 13.09 16.8575 13.46 17.2275C13.55 17.3175 13.62 17.4274 13.67 17.5574C13.72 17.6774 13.75 17.8074 13.75 17.9374C13.75 18.1974 13.64 18.4574 13.46 18.6474C13.27 18.8274 13.01 18.9374 12.75 18.9374Z" fill="#5E5F60"/>
<path d="M16.25 18.9375C15.99 18.9375 15.73 18.8275 15.54 18.6475C15.45 18.5575 15.38 18.4475 15.33 18.3175C15.28 18.1975 15.25 18.0675 15.25 17.9375C15.25 17.8075 15.28 17.6775 15.33 17.5575C15.38 17.4275 15.45 17.3175 15.54 17.2275C15.77 16.9975 16.12 16.8875 16.44 16.9575C16.51 16.9675 16.57 16.9875 16.63 17.0175C16.69 17.0375 16.75 17.0675 16.81 17.1075C16.86 17.1375 16.91 17.1875 16.96 17.2275C17.14 17.4175 17.25 17.6775 17.25 17.9375C17.25 18.1975 17.14 18.4575 16.96 18.6475C16.77 18.8275 16.51 18.9375 16.25 18.9375Z" fill="#5E5F60"/>
<path d="M21.25 10.7775H4.25C3.84 10.7775 3.5 10.4375 3.5 10.0275C3.5 9.61747 3.84 9.27747 4.25 9.27747H21.25C21.66 9.27747 22 9.61747 22 10.0275C22 10.4375 21.66 10.7775 21.25 10.7775Z" fill="#5E5F60"/>
<path d="M16.75 23.6875H8.75C5.1 23.6875 3 21.5875 3 17.9375V9.4375C3 5.7875 5.1 3.6875 8.75 3.6875H16.75C20.4 3.6875 22.5 5.7875 22.5 9.4375V17.9375C22.5 21.5875 20.4 23.6875 16.75 23.6875ZM8.75 5.1875C5.89 5.1875 4.5 6.5775 4.5 9.4375V17.9375C4.5 20.7975 5.89 22.1875 8.75 22.1875H16.75C19.61 22.1875 21 20.7975 21 17.9375V9.4375C21 6.5775 19.61 5.1875 16.75 5.1875H8.75Z" fill="#5E5F60"/>
</svg>
