<svg width="25" height="25" viewBox="0 0 25 25" fill="none" xmlns="http://www.w3.org/2000/svg">
<path d="M17.5002 4.4975V2.9375C17.5002 2.5275 17.1602 2.1875 16.7502 2.1875C16.3402 2.1875 16.0002 2.5275 16.0002 2.9375V4.4375H9.50023V2.9375C9.50023 2.5275 9.16023 2.1875 8.75023 2.1875C8.34023 2.1875 8.00023 2.5275 8.00023 2.9375V4.4975C5.30023 4.7475 3.99023 6.3575 3.79023 8.7475C3.77023 9.0375 4.01023 9.2775 4.29023 9.2775H21.2102C21.5002 9.2775 21.7402 9.0275 21.7102 8.7475C21.5102 6.3575 20.2002 4.7475 17.5002 4.4975Z" fill="#134373"/>
<path d="M20.75 10.7773H4.75C4.2 10.7773 3.75 11.2273 3.75 11.7773V17.9373C3.75 20.9373 5.25 22.9373 8.75 22.9373H16.75C20.25 22.9373 21.75 20.9373 21.75 17.9373V11.7773C21.75 11.2273 21.3 10.7773 20.75 10.7773ZM9.96 19.1473C9.91 19.1873 9.86 19.2373 9.81 19.2673C9.75 19.3073 9.69 19.3373 9.63 19.3573C9.57 19.3873 9.51 19.4073 9.45 19.4173C9.38 19.4273 9.32 19.4373 9.25 19.4373C9.12 19.4373 8.99 19.4073 8.87 19.3573C8.74 19.3073 8.64 19.2373 8.54 19.1473C8.36 18.9573 8.25 18.6973 8.25 18.4373C8.25 18.1773 8.36 17.9173 8.54 17.7273C8.64 17.6373 8.74 17.5673 8.87 17.5173C9.05 17.4373 9.25 17.4173 9.45 17.4573C9.51 17.4673 9.57 17.4873 9.63 17.5173C9.69 17.5373 9.75 17.5673 9.81 17.6073C9.86 17.6473 9.91 17.6873 9.96 17.7273C10.14 17.9173 10.25 18.1773 10.25 18.4373C10.25 18.6973 10.14 18.9573 9.96 19.1473ZM9.96 15.6473C9.77 15.8273 9.51 15.9373 9.25 15.9373C8.99 15.9373 8.73 15.8273 8.54 15.6473C8.36 15.4573 8.25 15.1973 8.25 14.9373C8.25 14.6773 8.36 14.4173 8.54 14.2273C8.82 13.9473 9.26 13.8573 9.63 14.0173C9.76 14.0673 9.87 14.1373 9.96 14.2273C10.14 14.4173 10.25 14.6773 10.25 14.9373C10.25 15.1973 10.14 15.4573 9.96 15.6473ZM13.46 19.1473C13.27 19.3273 13.01 19.4373 12.75 19.4373C12.49 19.4373 12.23 19.3273 12.04 19.1473C11.86 18.9573 11.75 18.6973 11.75 18.4373C11.75 18.1773 11.86 17.9173 12.04 17.7273C12.41 17.3573 13.09 17.3573 13.46 17.7273C13.64 17.9173 13.75 18.1773 13.75 18.4373C13.75 18.6973 13.64 18.9573 13.46 19.1473ZM13.46 15.6473C13.41 15.6873 13.36 15.7273 13.31 15.7673C13.25 15.8073 13.19 15.8373 13.13 15.8573C13.07 15.8873 13.01 15.9073 12.95 15.9173C12.88 15.9273 12.82 15.9373 12.75 15.9373C12.49 15.9373 12.23 15.8273 12.04 15.6473C11.86 15.4573 11.75 15.1973 11.75 14.9373C11.75 14.6773 11.86 14.4173 12.04 14.2273C12.13 14.1373 12.24 14.0673 12.37 14.0173C12.74 13.8573 13.18 13.9473 13.46 14.2273C13.64 14.4173 13.75 14.6773 13.75 14.9373C13.75 15.1973 13.64 15.4573 13.46 15.6473ZM16.96 19.1473C16.77 19.3273 16.51 19.4373 16.25 19.4373C15.99 19.4373 15.73 19.3273 15.54 19.1473C15.36 18.9573 15.25 18.6973 15.25 18.4373C15.25 18.1773 15.36 17.9173 15.54 17.7273C15.91 17.3573 16.59 17.3573 16.96 17.7273C17.14 17.9173 17.25 18.1773 17.25 18.4373C17.25 18.6973 17.14 18.9573 16.96 19.1473ZM16.96 15.6473C16.91 15.6873 16.86 15.7273 16.81 15.7673C16.75 15.8073 16.69 15.8373 16.63 15.8573C16.57 15.8873 16.51 15.9073 16.45 15.9173C16.38 15.9273 16.31 15.9373 16.25 15.9373C15.99 15.9373 15.73 15.8273 15.54 15.6473C15.36 15.4573 15.25 15.1973 15.25 14.9373C15.25 14.6773 15.36 14.4173 15.54 14.2273C15.64 14.1373 15.74 14.0673 15.87 14.0173C16.05 13.9373 16.25 13.9173 16.45 13.9573C16.51 13.9673 16.57 13.9873 16.63 14.0173C16.69 14.0373 16.75 14.0673 16.81 14.1073C16.86 14.1473 16.91 14.1873 16.96 14.2273C17.14 14.4173 17.25 14.6773 17.25 14.9373C17.25 15.1973 17.14 15.4573 16.96 15.6473Z" fill="#134373"/>
</svg>
