<svg width="24" height="25" viewBox="0 0 24 25" fill="none" xmlns="http://www.w3.org/2000/svg">
<path fill-rule="evenodd" clip-rule="evenodd" d="M10.9399 2.27539H13.0601C14.467 2.27539 15.57 2.27538 16.4565 2.34418C17.3592 2.41423 18.1049 2.55924 18.7799 2.88592C19.8896 3.42295 20.7918 4.27987 21.3572 5.33385C21.7012 5.97498 21.8538 6.68331 21.9276 7.54072C22 8.38274 22 9.43039 22 10.7667V13.4522C22 13.7021 22 13.8542 21.9934 13.9868C21.8496 16.8722 19.4193 19.1805 16.3814 19.3171C16.2418 19.3234 16.0655 19.3234 15.7732 19.3234H15.744L15.6668 19.3235C14.7773 19.3289 13.9109 19.5926 13.1839 20.0792L13.1335 20.1133L10.4558 21.9299C8.91272 22.9768 6.88501 21.4649 7.58927 19.7926C7.68393 19.5679 7.50965 19.3234 7.25478 19.3234H6.6376C4.07632 19.3234 2 17.3512 2 14.9185L2 10.7667C2 9.4304 1.99999 8.38274 2.07242 7.54072C2.14618 6.68331 2.29885 5.97498 2.64278 5.33385C3.20819 4.27987 4.11038 3.42295 5.22006 2.88592C5.89506 2.55924 6.64082 2.41423 7.54352 2.34418C8.43004 2.27538 9.53305 2.27539 10.9399 2.27539ZM7.6688 3.80058C6.86124 3.86325 6.34048 3.98368 5.9185 4.1879C5.09831 4.58484 4.43147 5.21821 4.01356 5.99725C3.79855 6.39805 3.67176 6.89267 3.60577 7.65971C3.53906 8.43528 3.53846 9.42336 3.53846 10.7994V14.9185C3.53846 16.5442 4.92599 17.8621 6.6376 17.8621H7.25478C8.59806 17.8621 9.51658 19.1507 9.0177 20.3353C8.88407 20.6526 9.26881 20.9395 9.56159 20.7409L12.2393 18.9242L12.2977 18.8847C13.2814 18.2263 14.4536 17.8695 15.6569 17.8622L15.744 17.8621C16.0739 17.8621 16.2105 17.8619 16.3087 17.8575C18.5541 17.7565 20.3504 16.0504 20.4567 13.9177C20.4613 13.8242 20.4615 13.7093 20.4615 13.4285V10.7994C20.4615 9.42336 20.4609 8.43528 20.3942 7.65971C20.3282 6.89267 20.2014 6.39805 19.9864 5.99725C19.5685 5.21821 18.9017 4.58484 18.0815 4.1879C17.6595 3.98368 17.1388 3.86325 16.3312 3.80058C15.5146 3.73721 14.4744 3.73665 13.0256 3.73665H10.9744C9.52563 3.73665 8.48535 3.73721 7.6688 3.80058Z" fill="white"/>
<path d="M8.92308 10.7994C8.92308 11.3374 8.46388 11.7736 7.89744 11.7736C7.33099 11.7736 6.8718 11.3374 6.8718 10.7994C6.8718 10.2614 7.33099 9.82521 7.89744 9.82521C8.46388 9.82521 8.92308 10.2614 8.92308 10.7994Z" fill="white"/>
<path d="M13.0256 10.7994C13.0256 11.3374 12.5664 11.7736 12 11.7736C11.4336 11.7736 10.9744 11.3374 10.9744 10.7994C10.9744 10.2614 11.4336 9.82521 12 9.82521C12.5664 9.82521 13.0256 10.2614 13.0256 10.7994Z" fill="white"/>
<path d="M17.1282 10.7994C17.1282 11.3374 16.669 11.7736 16.1026 11.7736C15.5361 11.7736 15.0769 11.3374 15.0769 10.7994C15.0769 10.2614 15.5361 9.82521 16.1026 9.82521C16.669 9.82521 17.1282 10.2614 17.1282 10.7994Z" fill="white"/>
</svg>
