<svg width="24" height="25" viewBox="0 0 24 25" fill="none" xmlns="http://www.w3.org/2000/svg">
<path d="M2 22.8623H22" stroke="black" stroke-width="1.5" stroke-miterlimit="10" stroke-linecap="round" stroke-linejoin="round"/>
<path d="M3 9.86216V7.93217C3 7.26217 3.34001 6.64213 3.89001 6.27213L7.89001 3.60215C8.56001 3.15215 9.43999 3.15215 10.11 3.60215L14.11 6.27213C14.67 6.64213 15 7.26217 15 7.93217L15.01 22.8521L3.01001 22.8722L3 13.7821" stroke="black" stroke-width="1.5" stroke-miterlimit="10" stroke-linecap="round" stroke-linejoin="round"/>
<path d="M19.9805 22.8723V18.8623" stroke="black" stroke-width="1.5" stroke-miterlimit="10" stroke-linecap="round" stroke-linejoin="round"/>
<path d="M20 12.8623C18.9 12.8623 18 13.7623 18 14.8623V16.8623C18 17.9623 18.9 18.8623 20 18.8623C21.1 18.8623 22 17.9623 22 16.8623V14.8623C22 13.7623 21.1 12.8623 20 12.8623Z" stroke="black" stroke-width="1.5" stroke-miterlimit="10" stroke-linecap="round" stroke-linejoin="round"/>
<path d="M3 14.8623H15" stroke="black" stroke-width="1.5" stroke-miterlimit="10" stroke-linecap="round" stroke-linejoin="round"/>
<path d="M9 22.8623V19.1123" stroke="black" stroke-width="1.5" stroke-miterlimit="10" stroke-linecap="round" stroke-linejoin="round"/>
<path d="M9 11.3623C9.82843 11.3623 10.5 10.6907 10.5 9.8623C10.5 9.03388 9.82843 8.3623 9 8.3623C8.17157 8.3623 7.5 9.03388 7.5 9.8623C7.5 10.6907 8.17157 11.3623 9 11.3623Z" stroke="black" stroke-width="1.5" stroke-miterlimit="10" stroke-linecap="round" stroke-linejoin="round"/>
</svg>
