<svg width="24" height="25" viewBox="0 0 24 25" fill="none" xmlns="http://www.w3.org/2000/svg">
<path d="M22 12.8174C22 7.29738 17.52 2.81738 12 2.81738C6.48 2.81738 2 7.29738 2 12.8174C2 18.3374 6.48 22.8174 12 22.8174" stroke="black" stroke-width="1.5" stroke-linecap="round" stroke-linejoin="round"/>
<path d="M7.99961 3.81738H8.99961C7.04961 9.65738 7.04961 15.9774 8.99961 21.8174H7.99961" stroke="black" stroke-width="1.5" stroke-linecap="round" stroke-linejoin="round"/>
<path d="M15 3.81738C15.97 6.73738 16.46 9.77738 16.46 12.8174" stroke="black" stroke-width="1.5" stroke-linecap="round" stroke-linejoin="round"/>
<path d="M3 16.8174V15.8174C5.92 16.7874 8.96 17.2774 12 17.2774" stroke="black" stroke-width="1.5" stroke-linecap="round" stroke-linejoin="round"/>
<path d="M21 9.81744C18.08 8.84744 15.04 8.35742 12 8.35742" stroke="black" stroke-width="1.5" stroke-linecap="round" stroke-linejoin="round"/>
<path d="M3 9.8172C4.59 9.2872 6.21001 8.90723 7.85001 8.65723" stroke="black" stroke-width="1.5" stroke-linecap="round" stroke-linejoin="round"/>
<path d="M18.2 22.2174C19.9673 22.2174 21.4 20.7847 21.4 19.0174C21.4 17.2501 19.9673 15.8174 18.2 15.8174C16.4327 15.8174 15 17.2501 15 19.0174C15 20.7847 16.4327 22.2174 18.2 22.2174Z" stroke="black" stroke-width="1.5" stroke-linecap="round" stroke-linejoin="round"/>
<path d="M22 22.8174L21 21.8174" stroke="black" stroke-width="1.5" stroke-linecap="round" stroke-linejoin="round"/>
</svg>
