<svg width="30" height="30" viewBox="0 0 30 30" fill="none" xmlns="http://www.w3.org/2000/svg">
<rect width="30" height="30" rx="6" fill="#FC3030" fill-opacity="0.1"/>
<path d="M22.5 9.98356C19.725 9.70856 16.9333 9.56689 14.15 9.56689C12.5 9.56689 10.85 9.65023 9.2 9.81689L7.5 9.98356" stroke="#FC3030" stroke-width="1.5" stroke-linecap="round" stroke-linejoin="round"/>
<path d="M12.083 9.1415L12.2663 8.04984C12.3997 7.25817 12.4997 6.6665 13.908 6.6665H16.0913C17.4997 6.6665 17.608 7.2915 17.733 8.05817L17.9163 9.1415" stroke="#FC3030" stroke-width="1.5" stroke-linecap="round" stroke-linejoin="round"/>
<path d="M20.7087 12.6167L20.167 21.0084C20.0753 22.3167 20.0003 23.3334 17.6753 23.3334H12.3253C10.0003 23.3334 9.92533 22.3167 9.83366 21.0084L9.29199 12.6167" stroke="#FC3030" stroke-width="1.5" stroke-linecap="round" stroke-linejoin="round"/>
<path d="M13.6084 18.75H16.3834" stroke="#FC3030" stroke-width="1.5" stroke-linecap="round" stroke-linejoin="round"/>
<path d="M12.917 15.4165H17.0837" stroke="#FC3030" stroke-width="1.5" stroke-linecap="round" stroke-linejoin="round"/>
</svg>
