<svg width="36" height="36" viewBox="0 0 36 36" fill="none" xmlns="http://www.w3.org/2000/svg">
<path d="M13.0078 21.4948C13.0078 23.4298 14.4928 24.9898 16.3378 24.9898H20.1028C21.7078 24.9898 23.0128 23.6248 23.0128 21.9448C23.0128 20.1148 22.2178 19.4698 21.0328 19.0498L14.9878 16.9498C13.8028 16.5298 13.0078 15.8848 13.0078 14.0548C13.0078 12.3748 14.3128 11.0098 15.9178 11.0098H19.6828C21.5278 11.0098 23.0128 12.5698 23.0128 14.5048" stroke="#DDEBF9" stroke-width="2" stroke-linecap="round" stroke-linejoin="round"/>
<path d="M18 9V27" stroke="#DDEBF9" stroke-width="2" stroke-linecap="round" stroke-linejoin="round"/>
<path d="M18 33C26.2843 33 33 26.2843 33 18C33 9.71573 26.2843 3 18 3C9.71573 3 3 9.71573 3 18C3 26.2843 9.71573 33 18 33Z" stroke="#DDEBF9" stroke-width="2" stroke-linecap="round" stroke-linejoin="round"/>
</svg>
