<svg width="24" height="24" viewBox="0 0 24 24" fill="none" xmlns="http://www.w3.org/2000/svg">
<path d="M2.625 5.53201H12.1408C12.4276 6.83617 13.5934 7.81527 14.9837 7.81527C16.374 7.81527 17.5398 6.83621 17.8266 5.53201H21.375C21.7202 5.53201 22 5.25244 22 4.90761C22 4.56279 21.7202 4.28322 21.375 4.28322H17.8263C17.5389 2.97971 16.3716 2 14.9837 2C13.5951 2 12.4283 2.97956 12.1411 4.28322H2.625C2.27984 4.28322 2 4.56279 2 4.90761C2 5.25244 2.27984 5.53201 2.625 5.53201ZM13.3233 4.90925C13.3233 4.90703 13.3234 4.90476 13.3234 4.90254C13.3261 3.99065 14.0709 3.24883 14.9837 3.24883C15.8952 3.24883 16.6401 3.98964 16.644 4.9011L16.6441 4.91027C16.6427 5.82372 15.8984 6.56651 14.9837 6.56651C14.0694 6.56651 13.3254 5.82446 13.3233 4.91155L13.3233 4.90925ZM21.375 18.468H17.8263C17.5389 17.1645 16.3716 16.1847 14.9837 16.1847C13.5951 16.1847 12.4283 17.1643 12.1411 18.468H2.625C2.27984 18.468 2 18.7475 2 19.0923C2 19.4372 2.27984 19.7167 2.625 19.7167H12.1408C12.4276 21.0209 13.5934 22 14.9837 22C16.374 22 17.5398 21.0209 17.8266 19.7167H21.375C21.7202 19.7167 22 19.4372 22 19.0923C22 18.7475 21.7202 18.468 21.375 18.468ZM14.9837 20.7512C14.0694 20.7512 13.3254 20.0092 13.3233 19.0963L13.3233 19.094C13.3233 19.0917 13.3234 19.0895 13.3234 19.0873C13.3261 18.1754 14.0709 17.4335 14.9837 17.4335C15.8952 17.4335 16.6401 18.1743 16.644 19.0858L16.6441 19.0949C16.6428 20.0085 15.8985 20.7512 14.9837 20.7512ZM21.375 11.3756H11.8592C11.5724 10.0714 10.4066 9.09239 9.01629 9.09239C7.62598 9.09239 6.4602 10.0714 6.1734 11.3756H2.625C2.27984 11.3756 2 11.6552 2 12C2 12.3449 2.27984 12.6244 2.625 12.6244H6.17371C6.46109 13.9279 7.62844 14.9076 9.01629 14.9076C10.4049 14.9076 11.5717 13.928 11.8589 12.6244H21.375C21.7202 12.6244 22 12.3449 22 12C22 11.6552 21.7202 11.3756 21.375 11.3756ZM10.6767 11.9984C10.6767 12.0006 10.6766 12.0028 10.6766 12.0051C10.6739 12.917 9.9291 13.6588 9.01629 13.6588C8.10477 13.6588 7.35992 12.918 7.35598 12.0066L7.35586 11.9974C7.35723 11.0839 8.10156 10.3412 9.01629 10.3412C9.93059 10.3412 10.6746 11.0832 10.6767 11.9961L10.6767 11.9984Z" fill="#0B0B0B"/>
</svg>
