<svg width="40" height="40" viewBox="0 0 40 40" fill="none" xmlns="http://www.w3.org/2000/svg">
<rect width="40" height="40" rx="10" fill="#134373"/>
<path d="M10.625 13.532H20.141C20.428 14.8362 21.593 15.8153 22.984 15.8153C24.374 15.8153 25.54 14.8362 25.827 13.532H29.375C29.72 13.532 30 13.2524 30 12.9076C30 12.5628 29.72 12.2832 29.375 12.2832H25.826C25.539 10.9797 24.372 10 22.984 10C21.595 10 20.428 10.9796 20.141 12.2832H10.625C10.28 12.2832 10 12.5628 10 12.9076C10 13.2524 10.28 13.532 10.625 13.532ZM21.323 12.9093C21.323 12.907 21.323 12.9048 21.323 12.9025C21.326 11.9906 22.071 11.2488 22.984 11.2488C23.895 11.2488 24.64 11.9896 24.644 12.9011V12.9103C24.643 13.8237 23.898 14.5665 22.984 14.5665C22.069 14.5665 21.325 13.8245 21.323 12.9116V12.9093ZM29.375 26.468H25.826C25.539 25.1645 24.372 24.1847 22.984 24.1847C21.595 24.1847 20.428 25.1643 20.141 26.468H10.625C10.28 26.468 10 26.7475 10 27.0923C10 27.4372 10.28 27.7167 10.625 27.7167H20.141C20.428 29.0209 21.593 30 22.984 30C24.374 30 25.54 29.0209 25.827 27.7167H29.375C29.72 27.7167 30 27.4372 30 27.0923C30 26.7475 29.72 26.468 29.375 26.468ZM22.984 28.7512C22.069 28.7512 21.325 28.0092 21.323 27.0963V27.094C21.323 27.0917 21.323 27.0895 21.323 27.0873C21.326 26.1754 22.071 25.4335 22.984 25.4335C23.895 25.4335 24.64 26.1743 24.644 27.0858V27.0949C24.643 28.0085 23.898 28.7512 22.984 28.7512ZM29.375 19.3756H19.859C19.572 18.0714 18.407 17.0924 17.016 17.0924C15.626 17.0924 14.46 18.0714 14.173 19.3756H10.625C10.28 19.3756 10 19.6552 10 20C10 20.3449 10.28 20.6244 10.625 20.6244H14.174C14.461 21.9279 15.628 22.9076 17.016 22.9076C18.405 22.9076 19.572 21.928 19.859 20.6244H29.375C29.72 20.6244 30 20.3449 30 20C30 19.6552 29.72 19.3756 29.375 19.3756ZM18.677 19.9984C18.677 20.0006 18.677 20.0028 18.677 20.0051C18.674 20.917 17.929 21.6588 17.016 21.6588C16.105 21.6588 15.36 20.918 15.356 20.0066V19.9974C15.357 19.0839 16.102 18.3412 17.016 18.3412C17.931 18.3412 18.675 19.0832 18.677 19.9961V19.9984Z" fill="white"/>
</svg>
