<svg width="24" height="24" viewBox="0 0 24 24" fill="none" xmlns="http://www.w3.org/2000/svg">
<path d="M5.89834 13.7295C5.97598 13.7295 6.05215 13.7084 6.11875 13.6685C6.18536 13.6286 6.23992 13.5714 6.27662 13.503C6.31332 13.4346 6.33081 13.3575 6.32721 13.2799C6.32361 13.2024 6.29907 13.1272 6.25619 13.0625C5.90938 12.5373 5.68218 11.9423 5.59066 11.3196C5.49914 10.6969 5.54553 10.0617 5.72656 9.45889C5.90759 8.8561 6.21883 8.30043 6.63827 7.83118C7.05772 7.36192 7.57513 6.99054 8.15392 6.7433C8.73271 6.49605 9.35876 6.37897 9.98778 6.40033C10.6168 6.4217 11.2335 6.58099 11.7942 6.86694C12.3548 7.15289 12.8459 7.55852 13.2325 8.05516C13.6191 8.55179 13.8919 9.12729 14.0317 9.74098C14.0568 9.85214 14.1251 9.94876 14.2214 10.0096C14.3178 10.0704 14.4344 10.0905 14.5456 10.0653C14.6567 10.0402 14.7533 9.97191 14.8142 9.87553C14.875 9.77915 14.895 9.66256 14.8699 9.5514C14.7024 8.8148 14.3752 8.12398 13.9113 7.52781C13.4474 6.93165 12.8582 6.44468 12.1853 6.10137C11.5124 5.75806 10.7723 5.56679 10.0174 5.54107C9.26241 5.51536 8.51103 5.65584 7.81635 5.95258C7.12168 6.24931 6.50069 6.69506 5.9973 7.25828C5.49391 7.82151 5.12042 8.48846 4.90324 9.21196C4.68607 9.93547 4.63051 10.6979 4.7405 11.4452C4.85049 12.1925 5.12334 12.9066 5.53976 13.5368C5.57891 13.5961 5.63217 13.6448 5.69475 13.6784C5.75734 13.712 5.82729 13.7296 5.89834 13.7295Z" fill="#134373" stroke="#134373" stroke-width="0.6"/>
<path d="M9.84083 4.32895C9.95479 4.32895 10.0641 4.28367 10.1447 4.20309C10.2252 4.12251 10.2705 4.01321 10.2705 3.89925V2.28223C10.2705 2.16827 10.2252 2.05898 10.1447 1.97839C10.0641 1.89781 9.95479 1.85254 9.84083 1.85254C9.72686 1.85254 9.61757 1.89781 9.53699 1.97839C9.4564 2.05898 9.41113 2.16827 9.41113 2.28223V3.89925C9.41113 4.01321 9.4564 4.12251 9.53699 4.20309C9.61757 4.28367 9.72686 4.32895 9.84083 4.32895Z" fill="#134373" stroke="#134373" stroke-width="0.6"/>
<path d="M6.07072 5.02486C6.1277 5.12356 6.22155 5.19558 6.33163 5.22508C6.44172 5.25457 6.55901 5.23913 6.6577 5.18215C6.7564 5.12517 6.82842 5.03132 6.85791 4.92124C6.88741 4.81116 6.87197 4.69387 6.81499 4.59517L6.00644 3.1948C5.94905 3.09691 5.85528 3.0257 5.74558 2.9967C5.63588 2.96769 5.51916 2.98326 5.4209 3.03999C5.32263 3.09673 5.2508 3.19003 5.22107 3.29953C5.19134 3.40904 5.20613 3.52585 5.26221 3.62449L6.07072 5.02486Z" fill="#134373" stroke="#134373" stroke-width="0.6"/>
<path d="M2.34134 6.85987L3.74166 7.6686C3.79055 7.69726 3.84462 7.71596 3.90077 7.72364C3.95691 7.73132 4.01402 7.72781 4.06881 7.71333C4.12359 7.69884 4.17497 7.67367 4.21999 7.63924C4.26501 7.60482 4.30277 7.56184 4.3311 7.51276C4.35944 7.46368 4.37778 7.40949 4.38509 7.35329C4.39239 7.2971 4.38851 7.24001 4.37366 7.18533C4.35881 7.13064 4.3333 7.07943 4.29858 7.03464C4.26386 6.98985 4.22062 6.95238 4.17136 6.92437L2.77103 6.11564C2.72214 6.08699 2.66807 6.06828 2.61193 6.0606C2.55578 6.05292 2.49867 6.05643 2.44389 6.07091C2.3891 6.0854 2.33772 6.11058 2.29271 6.145C2.24769 6.17942 2.20993 6.22241 2.18159 6.27148C2.15326 6.32056 2.13491 6.37475 2.12761 6.43095C2.1203 6.48714 2.12419 6.54423 2.13903 6.59892C2.15388 6.65361 2.1794 6.70482 2.21412 6.7496C2.24884 6.79439 2.29208 6.83186 2.34134 6.85987Z" fill="#134373" stroke="#134373" stroke-width="0.6"/>
<path d="M3.47641 10.6934C3.47641 10.5794 3.43114 10.4701 3.35055 10.3895C3.26997 10.3089 3.16068 10.2637 3.04671 10.2637H1.42969C1.31573 10.2637 1.20644 10.3089 1.12585 10.3895C1.04527 10.4701 1 10.5794 1 10.6934C1 10.8073 1.04527 10.9166 1.12585 10.9972C1.20644 11.0778 1.31573 11.1231 1.42969 11.1231H3.04671C3.16068 11.1231 3.26997 11.0778 3.35055 10.9972C3.43114 10.9166 3.47641 10.8073 3.47641 10.6934Z" fill="#134373" stroke="#134373" stroke-width="0.6"/>
<path d="M4.32867 13.876C4.30045 13.8271 4.26289 13.7843 4.21812 13.7499C4.17335 13.7156 4.12225 13.6904 4.06774 13.6758C4.01323 13.6612 3.95638 13.6574 3.90043 13.6648C3.84448 13.6722 3.79053 13.6905 3.74166 13.7187L2.34134 14.5272C2.29208 14.5552 2.24884 14.5927 2.21412 14.6375C2.1794 14.6823 2.15388 14.7335 2.13903 14.7882C2.12419 14.8429 2.1203 14.9 2.12761 14.9562C2.13491 15.0123 2.15326 15.0665 2.18159 15.1156C2.20993 15.1647 2.24769 15.2077 2.29271 15.2421C2.33772 15.2765 2.3891 15.3017 2.44389 15.3162C2.49867 15.3307 2.55578 15.3342 2.61193 15.3265C2.66807 15.3188 2.72214 15.3001 2.77103 15.2715L4.17136 14.463C4.22023 14.4348 4.26307 14.3972 4.29743 14.3524C4.33179 14.3077 4.35699 14.2566 4.3716 14.2021C4.3862 14.1476 4.38993 14.0907 4.38257 14.0348C4.3752 13.9788 4.35689 13.9249 4.32867 13.876Z" fill="#134373" stroke="#134373" stroke-width="0.6"/>
<path d="M15.7241 7.726C15.7994 7.72601 15.8734 7.70613 15.9385 7.66838L17.3389 6.85987C17.3882 6.83186 17.4314 6.79439 17.4661 6.7496C17.5008 6.70482 17.5264 6.65361 17.5412 6.59892C17.5561 6.54423 17.5599 6.48714 17.5526 6.43095C17.5453 6.37475 17.527 6.32056 17.4987 6.27148C17.4703 6.22241 17.4326 6.17942 17.3875 6.145C17.3425 6.11058 17.2911 6.0854 17.2364 6.07091C17.1816 6.05643 17.1245 6.05292 17.0683 6.0606C17.0122 6.06828 16.9581 6.08699 16.9092 6.11564L15.5088 6.92415C15.4269 6.97146 15.3628 7.0445 15.3266 7.13194C15.2904 7.21938 15.2841 7.31633 15.3086 7.40773C15.3332 7.49913 15.3872 7.57987 15.4623 7.63742C15.5375 7.69497 15.6295 7.72611 15.7241 7.726Z" fill="#134373" stroke="#134373" stroke-width="0.6"/>
<path d="M13.0225 5.18213C13.1211 5.23911 13.2384 5.25455 13.3485 5.22506C13.4586 5.19556 13.5524 5.12355 13.6094 5.02486L14.4179 3.62449C14.474 3.52585 14.4888 3.40904 14.459 3.29953C14.4293 3.19003 14.3575 3.09673 14.2592 3.03999C14.1609 2.98326 14.0442 2.96769 13.9345 2.9967C13.8248 3.0257 13.731 3.09691 13.6737 3.1948L12.8652 4.59517C12.8082 4.69386 12.7928 4.81114 12.8223 4.92122C12.8518 5.0313 12.9238 5.12515 13.0225 5.18213Z" fill="#134373" stroke="#134373" stroke-width="0.6"/>
<path d="M20.3966 15.2172C20.5956 14.2715 20.4548 13.2858 19.9989 12.4336C19.543 11.5814 18.8012 10.9172 17.904 10.558C17.0067 10.1987 16.0116 10.1674 15.0935 10.4694C14.1754 10.7715 13.3932 11.3876 12.8846 12.2094C12.095 11.8938 11.2132 11.9003 10.4283 12.2274C9.64349 12.5546 9.01814 13.1763 8.68648 13.9593C8.12352 13.8621 7.54651 13.8828 6.99202 14.0203C6.43753 14.1578 5.91764 14.409 5.46533 14.758C5.01301 15.107 4.63813 15.5461 4.36444 16.0476C4.09076 16.549 3.92423 17.1019 3.87543 17.6711C3.82663 18.2403 3.89661 18.8134 4.08094 19.3541C4.26527 19.8949 4.55993 20.3914 4.94623 20.8123C5.33254 21.2331 5.80208 21.5692 6.32507 21.799C6.84807 22.0289 7.41312 22.1476 7.9844 22.1477H19.4744C20.329 22.1475 21.1545 21.837 21.7974 21.2739C22.4403 20.7107 22.8568 19.9333 22.9695 19.0862C23.0823 18.239 22.8835 17.3797 22.4102 16.6681C21.937 15.9565 21.2214 15.4409 20.3966 15.2172ZM19.4742 21.2884H7.98423C7.51879 21.2881 7.0588 21.1882 6.63512 20.9955C6.21143 20.8028 5.83385 20.5217 5.52769 20.1712C5.22153 19.8206 4.99387 19.4086 4.85998 18.9628C4.72609 18.5171 4.68906 18.0478 4.75138 17.5866C4.8137 17.1253 4.97393 16.6827 5.22132 16.2885C5.46871 15.8942 5.79754 15.5574 6.18575 15.3006C6.57397 15.0439 7.0126 14.8731 7.47223 14.7998C7.93186 14.7264 8.40186 14.7522 8.85071 14.8754C8.96012 14.9054 9.07698 14.891 9.17579 14.8352C9.2746 14.7794 9.34733 14.6868 9.37811 14.5776C9.47645 14.2292 9.65264 13.9077 9.89338 13.6373C10.1341 13.367 10.4332 13.1549 10.7679 13.017C11.1026 12.879 11.4642 12.819 11.8256 12.8413C12.1869 12.8636 12.5384 12.9677 12.8536 13.1457C12.9048 13.1746 12.9613 13.1928 13.0197 13.199C13.0781 13.2052 13.1372 13.1994 13.1933 13.1819C13.2494 13.1644 13.3013 13.1355 13.3458 13.0972C13.3903 13.0588 13.4264 13.0117 13.452 12.9589C13.8121 12.2153 14.4419 11.6369 15.2133 11.3413C15.9847 11.0457 16.8397 11.0551 17.6045 11.3676C18.3692 11.68 18.9862 12.2721 19.3298 13.0234C19.6735 13.7746 19.718 14.6286 19.4543 15.4115C19.4339 15.4718 19.4272 15.536 19.4347 15.5993C19.4421 15.6626 19.4636 15.7234 19.4974 15.7774C19.5313 15.8314 19.5768 15.8771 19.6305 15.9114C19.6843 15.9456 19.7449 15.9675 19.8082 15.9754C20.4813 16.0602 21.0968 16.3984 21.5294 16.9211C21.9619 17.4437 22.179 18.1116 22.1365 18.7887C22.0939 19.4659 21.7949 20.1013 21.3003 20.5657C20.8057 21.0301 20.1527 21.2885 19.4742 21.2884Z" fill="#134373" stroke="#134373" stroke-width="0.6"/>
</svg>
