<svg width="21" height="22" viewBox="0 0 21 22" fill="none" xmlns="http://www.w3.org/2000/svg">
<path d="M16.6608 0V1.34694H18.1802L15.2161 4.15748C14.1668 3.0837 12.7035 2.41596 11.0871 2.41596C8.91279 2.41596 7.01546 3.6239 6.03028 5.40379C5.94589 5.4001 5.86107 5.39786 5.77573 5.39786C2.59097 5.39786 0 7.98884 0 11.1736C0 14.1306 2.23369 16.5752 5.10224 16.9099V18.6998H3.08584V20.0468H5.10232V22H6.44927V20.0467H8.55375V18.6998H6.44927V16.9098C8.33766 16.6895 9.9507 15.5549 10.8326 13.9615C10.917 13.9652 11.0018 13.9674 11.0871 13.9674C14.2719 13.9674 16.8629 11.3764 16.8629 8.19169C16.8629 7.10944 16.5634 6.09593 16.0434 5.22925L19.2626 2.17684V3.84974H20.6095V0H16.6608ZM5.77582 15.6024C3.33377 15.6024 1.34703 13.6156 1.34703 11.1736C1.34703 8.82664 3.18201 6.90065 5.49252 6.75409C5.37432 7.21385 5.31141 7.69553 5.31141 8.19169C5.31141 10.7898 7.03583 12.9924 9.40019 13.7158C8.59813 14.8559 7.27259 15.6024 5.77582 15.6024ZM10.0059 12.4867C8.08483 12.0029 6.65839 10.2609 6.65839 8.19169C6.65839 7.73468 6.728 7.2936 6.85712 6.87852C8.77821 7.36235 10.2046 9.10443 10.2046 11.1736C10.2046 11.6306 10.135 12.0716 10.0059 12.4867ZM11.3705 12.6111C11.4887 12.1513 11.5516 11.6697 11.5516 11.1736C11.5516 8.57549 9.82717 6.37282 7.46286 5.64936C8.26491 4.50931 9.5905 3.76282 11.0872 3.76282C13.5293 3.76282 15.5161 5.74956 15.5161 8.19165C15.516 10.5386 13.681 12.4646 11.3705 12.6111Z" fill="black"/>
</svg>
