<svg width="24" height="25" viewBox="0 0 24 25" fill="none" xmlns="http://www.w3.org/2000/svg">
<path d="M3.19803 16.4018L3.8944 16.1804L3.19803 16.4018ZM2.13937 10.3923L2.84326 10.5885L2.13937 10.3923ZM6.56008 5.8268L6.12446 5.24013H6.12446L6.56008 5.8268ZM2.24737 10.0526L2.93531 10.299L2.24737 10.0526ZM6.08054 22.1095L5.66688 22.7118H5.66688L6.08054 22.1095ZM5.7978 21.8995L5.34085 22.4697L5.7978 21.8995ZM20.802 16.4018L20.1056 16.1804L20.802 16.4018ZM18.2022 21.8995L18.6592 22.4697L18.2022 21.8995ZM17.9195 22.1095L18.3331 22.7118L17.9195 22.1095ZM17.4399 5.8268L17.8755 5.24013L17.4399 5.8268ZM21.7526 10.0526L21.0647 10.299L21.7526 10.0526ZM21.8606 10.3923L21.1567 10.5885L21.8606 10.3923ZM12.1747 2.94077L12.1474 3.67098L12.1747 2.94077ZM11.8253 2.94077L11.8526 3.67098L11.8253 2.94077ZM10.0934 17.6197C9.68981 17.6197 9.36266 17.9468 9.36266 18.3504C9.36266 18.7539 9.68981 19.0811 10.0934 19.0811V17.6197ZM13.9066 19.0811C14.3102 19.0811 14.6373 18.7539 14.6373 18.3504C14.6373 17.9468 14.3102 17.6197 13.9066 17.6197V19.0811ZM3.8944 16.1804C3.40415 14.6384 3.05461 13.5358 2.87116 12.6404C2.69105 11.7614 2.68681 11.1498 2.84326 10.5885L1.43548 10.1961C1.19397 11.0627 1.23352 11.9286 1.43947 12.9338C1.64207 13.9226 2.02083 15.1108 2.50166 16.6232L3.8944 16.1804ZM6.12446 5.24013C4.86607 6.17453 3.87495 6.90921 3.14116 7.58858C2.39432 8.28002 1.86286 8.95892 1.55943 9.80628L2.93531 10.299C3.13113 9.7521 3.48487 9.26196 4.134 8.66097C4.79618 8.04792 5.71179 7.36681 6.9957 6.41347L6.12446 5.24013ZM2.84326 10.5885C2.87047 10.4908 2.90118 10.3943 2.93531 10.299L1.55943 9.80628C1.51346 9.93466 1.47212 10.0647 1.43548 10.1961L2.84326 10.5885ZM12 22.2068C10.4125 22.2068 9.28126 22.2058 8.39429 22.1077C7.52525 22.0116 6.96201 21.8284 6.4942 21.5071L5.66688 22.7118C6.40483 23.2186 7.23009 23.4493 8.23372 23.5603C9.21943 23.6692 10.445 23.6682 12 23.6682V22.2068ZM2.50166 16.6232C2.98245 18.1355 3.35945 19.3244 3.76435 20.2464C4.17577 21.1831 4.64295 21.9105 5.34085 22.4697L6.25475 21.3293C5.80948 20.9725 5.46232 20.4782 5.10241 19.6587C4.73599 18.8244 4.38468 17.7225 3.8944 16.1804L2.50166 16.6232ZM6.4942 21.5071C6.41231 21.4509 6.33244 21.3916 6.25475 21.3293L5.34085 22.4697C5.44656 22.5544 5.55531 22.6352 5.66688 22.7118L6.4942 21.5071ZM20.1056 16.1804C19.6153 17.7225 19.264 18.8244 18.8976 19.6587C18.5377 20.4782 18.1905 20.9725 17.7452 21.3293L18.6592 22.4697C19.357 21.9105 19.8242 21.1831 20.2357 20.2464C20.6406 19.3244 21.0175 18.1355 21.4983 16.6232L20.1056 16.1804ZM12 23.6682C13.555 23.6682 14.7806 23.6692 15.7663 23.5603C16.7699 23.4493 17.5952 23.2186 18.3331 22.7118L17.5058 21.5071C17.038 21.8284 16.4748 22.0116 15.6057 22.1077C14.7187 22.2058 13.5875 22.2068 12 22.2068V23.6682ZM17.7452 21.3293C17.6676 21.3916 17.5877 21.4509 17.5058 21.5071L18.3331 22.7118C18.4447 22.6352 18.5534 22.5544 18.6592 22.4697L17.7452 21.3293ZM17.0043 6.41347C18.2882 7.36681 19.2038 8.04792 19.866 8.66097C20.5151 9.26196 20.8689 9.7521 21.0647 10.299L22.4406 9.80628C22.1371 8.95892 21.6057 8.28002 20.8588 7.58858C20.125 6.90921 19.1339 6.17453 17.8755 5.24013L17.0043 6.41347ZM21.4983 16.6232C21.9792 15.1108 22.3579 13.9226 22.5605 12.9338C22.7665 11.9286 22.806 11.0627 22.5645 10.1961L21.1567 10.5885C21.3132 11.1498 21.3089 11.7614 21.1288 12.6404C20.9454 13.5358 20.5959 14.6384 20.1056 16.1804L21.4983 16.6232ZM21.0647 10.299C21.0988 10.3943 21.1295 10.4908 21.1567 10.5885L22.5645 10.1961C22.5279 10.0647 22.4865 9.93466 22.4406 9.80628L21.0647 10.299ZM17.8755 5.24013C16.6173 4.30585 15.6271 3.56937 14.7678 3.06584C13.8937 2.5537 13.0932 2.24398 12.2021 2.21057L12.1474 3.67098C12.708 3.692 13.2689 3.88142 14.0289 4.32676C14.8037 4.7807 15.7202 5.46002 17.0043 6.41347L17.8755 5.24013ZM6.9957 6.41347C8.27976 5.46002 9.19633 4.7807 9.97105 4.32676C10.7311 3.88142 11.292 3.692 11.8526 3.67098L11.7979 2.21057C10.9068 2.24398 10.1063 2.5537 9.23223 3.06584C8.37287 3.56937 7.38271 4.30585 6.12446 5.24013L6.9957 6.41347ZM12.2021 2.21057C12.0674 2.20552 11.9326 2.20552 11.7979 2.21057L11.8526 3.67098C11.9508 3.66729 12.0492 3.66729 12.1474 3.67098L12.2021 2.21057ZM10.0934 19.0811H13.9066V17.6197H10.0934V19.0811Z" fill="#5E5F60"/>
</svg>
