<svg width="22" height="22" viewBox="0 0 22 22" fill="none" xmlns="http://www.w3.org/2000/svg">
<path d="M21 15.7397V3.6697C21 2.4697 20.02 1.5797 18.83 1.6797H18.77C16.67 1.8597 13.48 2.9297 11.7 4.0497L11.53 4.1597C11.24 4.3397 10.76 4.3397 10.47 4.1597L10.22 4.0097C8.44 2.8997 5.26 1.8397 3.16 1.6697C1.97 1.5697 1 2.4697 1 3.6597V15.7397C1 16.6997 1.78 17.5997 2.74 17.7197L3.03 17.7597C5.2 18.0497 8.55 19.1497 10.47 20.1997L10.51 20.2197C10.78 20.3697 11.21 20.3697 11.47 20.2197C13.39 19.1597 16.75 18.0497 18.93 17.7597L19.26 17.7197C20.22 17.5997 21 16.6997 21 15.7397Z" stroke="#134373" stroke-width="1.5" stroke-linecap="round" stroke-linejoin="round"/>
</svg>
