<svg width="24" height="25" viewBox="0 0 24 25" fill="none" xmlns="http://www.w3.org/2000/svg">
<path fill-rule="evenodd" clip-rule="evenodd" d="M6.56008 5.8268C4.01778 7.71453 2.74662 8.6584 2.24737 10.0526C2.20732 10.1645 2.1713 10.2778 2.13937 10.3923C1.74142 11.8202 2.22695 13.3474 3.19803 16.4018C4.1691 19.4562 4.65464 20.9834 5.7978 21.8995C5.8895 21.973 5.98381 22.043 6.08054 22.1095C7.28631 22.9375 8.85754 22.9375 12 22.9375C15.1425 22.9375 16.7137 22.9375 17.9195 22.1095C18.0162 22.043 18.1105 21.973 18.2022 21.8995C19.3454 20.9834 19.8309 19.4562 20.802 16.4018C21.773 13.3474 22.2586 11.8202 21.8606 10.3923C21.8287 10.2778 21.7927 10.1645 21.7526 10.0526C21.2534 8.6584 19.9822 7.71454 17.4399 5.82681C14.8976 3.93908 13.6265 2.9952 12.1747 2.94077C12.0583 2.93641 11.9417 2.93641 11.8253 2.94077C10.3735 2.9952 9.10238 3.93907 6.56008 5.8268ZM10.0934 17.6196C9.6985 17.6196 9.37839 17.9468 9.37839 18.3504C9.37839 18.7539 9.6985 19.0811 10.0934 19.0811H13.9066C14.3015 19.0811 14.6216 18.7539 14.6216 18.3504C14.6216 17.9468 14.3015 17.6196 13.9066 17.6196H10.0934Z" fill="#134373"/>
</svg>
