<svg width="24" height="24" viewBox="0 0 24 24" fill="none" xmlns="http://www.w3.org/2000/svg">
<path fill-rule="evenodd" clip-rule="evenodd" d="M11.0389 7.49153H7.14401V4.89492H5.8457V1H14.9344V4.89492H11.6454C11.3115 4.89492 11.0395 5.16695 11.0395 5.50083L11.0389 7.49153ZM8.44231 6.19322H9.74062V5.50083C9.74062 4.45108 10.5951 3.59661 11.6448 3.59661H13.6355V2.29831H7.14401V3.59661H8.44231V6.19322Z" fill="#134373"/>
<path fill-rule="evenodd" clip-rule="evenodd" d="M14.2845 23.0726H3.89746V12.5172L7.22483 6.52734L8.35992 7.15788L5.19577 12.8534V21.7737H12.9862V12.8534L9.82202 7.15788L10.9565 6.52734L14.2845 12.5172V23.0726Z" fill="#134373"/>
<path fill-rule="evenodd" clip-rule="evenodd" d="M4.54688 12.0352H13.6356V13.3335H4.54688V12.0352Z" fill="#134373"/>
<path fill-rule="evenodd" clip-rule="evenodd" d="M14.7299 7.45888L12.4746 6.70692L11.7227 4.45164L12.9545 4.04102L13.5009 5.68065L15.1405 6.227L14.7299 7.45888Z" fill="#134373"/>
<path fill-rule="evenodd" clip-rule="evenodd" d="M10.3887 1.64941H11.687V4.24603H10.3887V1.64941Z" fill="#134373"/>
<path fill-rule="evenodd" clip-rule="evenodd" d="M16.8818 5.54395H18.1801V6.84225H16.8818V5.54395Z" fill="#134373"/>
<path fill-rule="evenodd" clip-rule="evenodd" d="M16.8379 1.64941H18.1362V2.94772H16.8379V1.64941Z" fill="#134373"/>
<path fill-rule="evenodd" clip-rule="evenodd" d="M18.8301 3.59668H20.1284V4.89499H18.8301V3.59668Z" fill="#134373"/>
<path fill-rule="evenodd" clip-rule="evenodd" d="M8.44238 6.8418H9.74069V17.2288H8.44238V6.8418Z" fill="#134373"/>
</svg>
