<svg width="52" height="52" viewBox="0 0 52 52" fill="none" xmlns="http://www.w3.org/2000/svg">
<rect x="0.5" y="0.5" width="51" height="51" rx="7.5" fill="white" stroke="#E8ECF4"/>
<g clip-path="url(#clip0_7_76)">
<path d="M17.8797 14.1781C17.057 14.4981 16.3613 14.9246 15.6656 15.6203C14.9699 16.311 14.5434 17.0117 14.2234 17.8293C13.9137 18.6215 13.7055 19.5305 13.6445 20.861C13.5836 22.1914 13.5684 22.618 13.5684 26.0102C13.5684 29.4024 13.5836 29.8289 13.6445 31.1594C13.7055 32.4899 13.9188 33.3989 14.2234 34.191C14.5434 35.0137 14.9699 35.7094 15.6656 36.4051C16.3613 37.1008 17.057 37.5274 17.8797 37.8473C18.6719 38.1571 19.5809 38.3653 20.9113 38.4262C22.2418 38.4871 22.6684 38.5024 26.0605 38.5024C29.4527 38.5024 29.8793 38.4871 31.2098 38.4262C32.5402 38.3653 33.4492 38.152 34.2414 37.8473C35.0641 37.5274 35.7598 37.1008 36.4555 36.4051C37.1512 35.7094 37.5777 35.0137 37.8977 34.191C38.2074 33.3989 38.4156 32.4899 38.4766 31.1594C38.5375 29.8289 38.5527 29.4024 38.5527 26.0102C38.5527 22.618 38.5375 22.1914 38.4766 20.861C38.4156 19.5305 38.2023 18.6215 37.8977 17.8293C37.5777 17.0117 37.1512 16.311 36.4605 15.6203C35.7648 14.9246 35.0691 14.4981 34.2465 14.1781C33.4543 13.8684 32.5453 13.6602 31.2148 13.5992C29.8844 13.5383 29.4578 13.5231 26.0656 13.5231C22.6734 13.5231 22.2469 13.5383 20.9164 13.5992C19.5809 13.6551 18.6719 13.8684 17.8797 14.1781ZM31.1082 15.8438C32.327 15.8996 32.9871 16.1028 33.4289 16.2754C34.0129 16.5039 34.4293 16.7731 34.866 17.2098C35.3027 17.6465 35.5719 18.0629 35.8004 18.6469C35.973 19.0887 36.1762 19.7489 36.232 20.9676C36.293 22.2828 36.3031 22.6789 36.3031 26.0153C36.3031 29.3516 36.2879 29.7477 36.232 31.0629C36.1762 32.2817 35.973 32.9418 35.8004 33.3836C35.5719 33.9676 35.3027 34.384 34.866 34.8207C34.4293 35.2574 34.0129 35.5266 33.4289 35.7551C32.9871 35.9278 32.327 36.1309 31.1082 36.1867C29.793 36.2477 29.3969 36.2578 26.0605 36.2578C22.7242 36.2578 22.3281 36.2426 21.0129 36.1867C19.7941 36.1309 19.134 35.9278 18.6922 35.7551C18.1082 35.5266 17.6918 35.2574 17.2551 34.8207C16.8184 34.384 16.5492 33.9676 16.3207 33.3836C16.148 32.9418 15.9449 32.2817 15.8891 31.0629C15.8281 29.7477 15.818 29.3516 15.818 26.0153C15.818 22.6789 15.8332 22.2828 15.8891 20.9676C15.9449 19.7489 16.148 19.0887 16.3207 18.6469C16.5492 18.0629 16.8184 17.6465 17.2551 17.2098C17.6918 16.7731 18.1082 16.5039 18.6922 16.2754C19.134 16.1028 19.7941 15.8996 21.0129 15.8438C22.3281 15.7828 22.7242 15.7727 26.0605 15.7727C29.3969 15.7727 29.793 15.7828 31.1082 15.8438Z" fill="url(#paint0_radial_7_76)"/>
<path d="M19.6465 26.0152C19.6465 29.5598 22.5207 32.4289 26.0602 32.4289C29.5996 32.4289 32.4738 29.5547 32.4738 26.0152C32.4738 22.4758 29.6047 19.6016 26.0602 19.6016C22.5156 19.6016 19.6465 22.4707 19.6465 26.0152ZM30.2242 26.0152C30.2242 28.3156 28.3605 30.1793 26.0602 30.1793C23.7598 30.1793 21.8961 28.3156 21.8961 26.0152C21.8961 23.7148 23.7598 21.8512 26.0602 21.8512C28.3605 21.8512 30.2242 23.7148 30.2242 26.0152Z" fill="url(#paint1_radial_7_76)"/>
<path d="M32.7334 20.8457C33.5607 20.8457 34.2314 20.175 34.2314 19.3477C34.2314 18.5203 33.5607 17.8496 32.7334 17.8496C31.906 17.8496 31.2354 18.5203 31.2354 19.3477C31.2354 20.175 31.906 20.8457 32.7334 20.8457Z" fill="#654C9F"/>
</g>
<defs>
<radialGradient id="paint0_radial_7_76" cx="0" cy="0" r="1" gradientUnits="userSpaceOnUse" gradientTransform="translate(14.023 36.2154) rotate(-3.00009) scale(36.1214 30.7028)">
<stop stop-color="#FED576"/>
<stop offset="0.2634" stop-color="#F47133"/>
<stop offset="0.6091" stop-color="#BC3081"/>
<stop offset="1" stop-color="#4C63D2"/>
</radialGradient>
<radialGradient id="paint1_radial_7_76" cx="0" cy="0" r="1" gradientUnits="userSpaceOnUse" gradientTransform="translate(19.8791 31.2527) rotate(-3.00009) scale(18.5488 15.7663)">
<stop stop-color="#FED576"/>
<stop offset="0.2634" stop-color="#F47133"/>
<stop offset="0.6091" stop-color="#BC3081"/>
<stop offset="1" stop-color="#4C63D2"/>
</radialGradient>
<clipPath id="clip0_7_76">
<rect width="26" height="26" fill="white" transform="translate(13 13)"/>
</clipPath>
</defs>
</svg>
