<svg width="34" height="35" viewBox="0 0 34 35" fill="none" xmlns="http://www.w3.org/2000/svg">
<path opacity="0.5" d="M24 34.3601H10C4.75329 34.3601 0.5 30.1068 0.5 24.8601V10.8601C0.5 5.6134 4.75329 1.36011 10 1.36011H24C29.2467 1.36011 33.5 5.6134 33.5 10.8601V24.8601C33.5 30.1068 29.2467 34.3601 24 34.3601Z" stroke="#CED3DE"/>
<g clip-path="url(#clip0_1763_4882)">
<path d="M12.0614 17.0002C12.0614 16.7701 12.1579 16.54 12.3505 16.3646L18.4138 10.8442C18.7995 10.493 19.4249 10.493 19.8105 10.8442C20.196 11.1952 20.196 11.7645 19.8105 12.1157L14.4453 17.0002L19.8103 21.8848C20.1958 22.2359 20.1958 22.8051 19.8103 23.1561C19.4247 23.5075 18.7994 23.5075 18.4137 23.1561L12.3503 17.6358C12.1577 17.4603 12.0614 17.2302 12.0614 17.0002V17.0002Z" fill="#0B0B0B"/>
</g>
<defs>
<clipPath id="clip0_1763_4882">
<rect width="17" height="11" fill="white" transform="matrix(0 1 -1 0 22 9)"/>
</clipPath>
</defs>
</svg>
