<svg width="24" height="24" viewBox="0 0 24 24" fill="none" xmlns="http://www.w3.org/2000/svg">
<path fill-rule="evenodd" clip-rule="evenodd" d="M12 5C12 4.44772 12.4477 4 13 4H21C21.5523 4 22 4.44772 22 5C22 5.55228 21.5523 6 21 6H13C12.4477 6 12 5.55228 12 5Z" fill="#134373"/>
<path fill-rule="evenodd" clip-rule="evenodd" d="M12 9C12 8.44772 12.4477 8 13 8H18C18.5523 8 19 8.44772 19 9C19 9.55228 18.5523 10 18 10H13C12.4477 10 12 9.55228 12 9Z" fill="#134373"/>
<path fill-rule="evenodd" clip-rule="evenodd" d="M12 15C12 14.4477 12.4477 14 13 14H21C21.5523 14 22 14.4477 22 15C22 15.5523 21.5523 16 21 16H13C12.4477 16 12 15.5523 12 15Z" fill="#134373"/>
<path fill-rule="evenodd" clip-rule="evenodd" d="M12 19C12 18.4477 12.4477 18 13 18H18C18.5523 18 19 18.4477 19 19C19 19.5523 18.5523 20 18 20H13C12.4477 20 12 19.5523 12 19Z" fill="#134373"/>
<path fill-rule="evenodd" clip-rule="evenodd" d="M2 5C2 3.89543 2.89543 3 4 3H8C9.10457 3 10 3.89543 10 5V9C10 10.1046 9.10457 11 8 11H4C2.89543 11 2 10.1046 2 9V5Z" fill="#134373"/>
<path fill-rule="evenodd" clip-rule="evenodd" d="M2 15C2 13.8954 2.89543 13 4 13H8C9.10457 13 10 13.8954 10 15V19C10 20.1046 9.10457 21 8 21H4C2.89543 21 2 20.1046 2 19V15Z" fill="#134373"/>
</svg>
