<svg width="18" height="18" viewBox="0 0 18 18" fill="none" xmlns="http://www.w3.org/2000/svg">
<g clip-path="url(#clip0_236_1311)">
<path d="M4.51291 9.54724H3.70569C3.49393 9.54724 3.30277 9.67331 3.21899 9.86749L0.984375 15.0708L6.29132 12.3603C5.65604 11.4812 5.02748 10.5117 4.51291 9.54724Z" fill="#134373"/>
<path d="M14.7807 9.86749C14.6971 9.67331 14.5058 9.54724 14.2942 9.54724H13.487C12.5152 11.3682 11.0995 13.25 10.1989 14.2854C9.56554 15.0118 8.43422 15.011 7.80182 14.2854C7.73714 14.2111 7.39944 13.8201 6.93431 13.2189L5.97754 13.7078L9.59671 17.3199L16.4544 13.7648L14.7807 9.86749Z" fill="#134373"/>
<path d="M0.331923 16.5914L0.0432568 17.2637C-0.106157 17.6115 0.149824 18 0.529814 18H8.30113C8.34974 17.9639 8.35029 17.9661 8.61122 17.8308L4.98669 14.2139L0.331923 16.5914Z" fill="#134373"/>
<path d="M17.9572 17.2637L16.8728 14.7388L10.582 18.0001H17.4706C17.8498 18.0001 18.1068 17.6122 17.9572 17.2637Z" fill="#134373"/>
<path d="M9.52951 4.75755C9.52951 4.46614 9.29193 4.22925 9.00011 4.22925C8.70815 4.22925 8.4707 4.46614 8.4707 4.75755C8.4707 5.04883 8.70815 5.28586 9.00011 5.28586C9.29193 5.28586 9.52951 5.04883 9.52951 4.75755Z" fill="#134373"/>
<path d="M9.39934 13.5569C9.57759 13.3522 13.7643 8.5092 13.7643 5.18007C13.7643 -1.68474 4.23535 -1.76851 4.23535 5.18007C4.23535 8.5092 8.4221 13.3522 8.60036 13.5569C8.81143 13.799 9.18868 13.7987 9.39934 13.5569ZM7.41164 4.75751C7.41164 3.88354 8.1241 3.17259 8.99985 3.17259C9.87546 3.17259 10.5879 3.88354 10.5879 4.75751C10.5879 5.63133 9.87546 6.34228 8.99985 6.34228C8.1241 6.34228 7.41164 5.63133 7.41164 4.75751Z" fill="#134373"/>
</g>
<defs>
<clipPath id="clip0_236_1311">
<rect width="18" height="18" fill="white"/>
</clipPath>
</defs>
</svg>
