<svg width="39" height="24" viewBox="0 0 39 24" fill="none" xmlns="http://www.w3.org/2000/svg">
<path d="M24.7957 2.84717H14.5117V21.3233H24.7957V2.84717Z" fill="#FF5A00"/>
<path d="M15.1954 12.0855C15.1954 8.33171 16.9601 5.00007 19.668 2.84744C17.6751 1.2805 15.1611 0.333496 12.419 0.333496C5.92307 0.333496 0.666992 5.58957 0.666992 12.0855C0.666992 18.5814 5.92307 23.8375 12.419 23.8375C15.1611 23.8375 17.6751 22.8905 19.668 21.3236C16.9563 19.2014 15.1954 15.8393 15.1954 12.0855Z" fill="#EB001B"/>
<path d="M38.6689 12.0855C38.6689 18.5814 33.4129 23.8375 26.9169 23.8375C24.1748 23.8375 21.6609 22.8905 19.668 21.3236C22.4101 19.1671 24.1406 15.8393 24.1406 12.0855C24.1406 8.33171 22.3759 5.00007 19.668 2.84744C21.6571 1.2805 24.171 0.333496 26.9131 0.333496C33.4129 0.333496 38.6689 5.6238 38.6689 12.0855Z" fill="#F79E1B"/>
</svg>
