<svg width="21" height="21" viewBox="0 0 21 21" fill="none" xmlns="http://www.w3.org/2000/svg">
<path fill-rule="evenodd" clip-rule="evenodd" d="M9.18994 0.9375H11.3101C12.717 0.937496 13.82 0.937492 14.7065 1.00629C15.6092 1.07634 16.3549 1.22135 17.0299 1.54802C18.1396 2.08506 19.0418 2.94197 19.6072 3.99596C19.9512 4.63709 20.1038 5.34542 20.1776 6.20283C20.25 7.04485 20.25 8.0925 20.25 9.42878V12.1143C20.25 12.3642 20.25 12.5163 20.2434 12.6489C20.0996 15.5343 17.6693 17.8426 14.6314 17.9792C14.4918 17.9855 14.3155 17.9855 14.0232 17.9855H13.994L13.9168 17.9856C13.0273 17.991 12.1609 18.2547 11.4339 18.7413L11.3835 18.7754L8.7058 20.592C7.16272 21.6389 5.13501 20.1271 5.83927 18.4547C5.93393 18.23 5.75965 17.9855 5.50478 17.9855H4.8876C2.32632 17.9855 0.25 16.0134 0.25 13.5806L0.25 9.4288C0.249995 8.09251 0.249992 7.04485 0.322422 6.20283C0.396177 5.34542 0.54885 4.63709 0.892782 3.99596C1.45819 2.94197 2.36038 2.08506 3.47006 1.54802C4.14506 1.22135 4.89082 1.07634 5.79352 1.00629C6.68004 0.937492 7.78305 0.937496 9.18994 0.9375ZM5.9188 2.46269C5.11124 2.52536 4.59048 2.64579 4.1685 2.85001C3.34831 3.24695 2.68147 3.88032 2.26356 4.65936C2.04855 5.06016 1.92176 5.55478 1.85577 6.32182C1.78906 7.09739 1.78846 8.08547 1.78846 9.46149V13.5806C1.78846 15.2063 3.17599 16.5242 4.8876 16.5242H5.50478C6.84806 16.5242 7.76658 17.8128 7.2677 18.9974C7.13407 19.3147 7.51881 19.6016 7.81159 19.403L10.4893 17.5863L10.5477 17.5468C11.5314 16.8885 12.7036 16.5317 13.9069 16.5243L13.994 16.5242C14.3239 16.5242 14.4605 16.524 14.5587 16.5196C16.8041 16.4186 18.6004 14.7125 18.7067 12.5798C18.7113 12.4863 18.7115 12.3714 18.7115 12.0906V9.46149C18.7115 8.08547 18.7109 7.09739 18.6442 6.32182C18.5782 5.55478 18.4514 5.06016 18.2364 4.65936C17.8185 3.88032 17.1517 3.24695 16.3315 2.85001C15.9095 2.64579 15.3888 2.52536 14.5812 2.46269C13.7646 2.39932 12.7244 2.39876 11.2756 2.39876H9.22436C7.77563 2.39876 6.73535 2.39932 5.9188 2.46269Z" fill="#5E5F60"/>
<path d="M7.17308 9.46149C7.17308 9.99951 6.71388 10.4357 6.14744 10.4357C5.58099 10.4357 5.1218 9.99951 5.1218 9.46149C5.1218 8.92347 5.58099 8.48732 6.14744 8.48732C6.71388 8.48732 7.17308 8.92347 7.17308 9.46149Z" fill="#5E5F60"/>
<path d="M11.2756 9.46149C11.2756 9.99951 10.8164 10.4357 10.25 10.4357C9.68355 10.4357 9.22436 9.99951 9.22436 9.46149C9.22436 8.92347 9.68355 8.48732 10.25 8.48732C10.8164 8.48732 11.2756 8.92347 11.2756 9.46149Z" fill="#5E5F60"/>
<path d="M15.3782 9.46149C15.3782 9.99951 14.919 10.4357 14.3526 10.4357C13.7861 10.4357 13.3269 9.99951 13.3269 9.46149C13.3269 8.92347 13.7861 8.48732 14.3526 8.48732C14.919 8.48732 15.3782 8.92347 15.3782 9.46149Z" fill="#5E5F60"/>
</svg>
