<svg width="25" height="25" viewBox="0 0 25 25" fill="none" xmlns="http://www.w3.org/2000/svg">
<path fill-rule="evenodd" clip-rule="evenodd" d="M21.6445 5.80726C22.25 6.93155 22.25 8.40333 22.25 11.3469V14.1839C22.25 14.4778 22.25 14.6248 22.2438 14.749C22.1083 17.4563 19.8189 19.6223 16.9572 19.7504C16.8259 19.7563 16.6526 19.7563 16.306 19.7563L16.217 19.7564C15.0834 19.7633 13.9792 20.0981 13.0525 20.7158L12.9936 20.7555L10.0928 22.7158C9.09833 23.3877 7.79159 22.4173 8.24544 21.3438C8.56694 20.5834 7.97501 19.7563 7.10935 19.7563H6.44073C4.12625 19.7563 2.25 17.9813 2.25 15.7916V11.3469C2.25 8.40333 2.25 6.93155 2.85552 5.80726C3.38815 4.8183 4.23804 4.01425 5.28339 3.51036C6.47179 2.9375 8.02749 2.9375 11.1389 2.9375H13.3611C16.4725 2.9375 18.0282 2.9375 19.2166 3.51036C20.262 4.01425 21.1119 4.8183 21.6445 5.80726ZM8.91667 11.3469C8.91667 11.9274 8.41921 12.3981 7.80556 12.3981C7.19191 12.3981 6.69444 11.9274 6.69444 11.3469C6.69444 10.7664 7.19191 10.2957 7.80556 10.2957C8.41921 10.2957 8.91667 10.7664 8.91667 11.3469ZM13.3611 11.3469C13.3611 11.9274 12.8636 12.3981 12.25 12.3981C11.6364 12.3981 11.1389 11.9274 11.1389 11.3469C11.1389 10.7664 11.6364 10.2957 12.25 10.2957C12.8636 10.2957 13.3611 10.7664 13.3611 11.3469ZM16.6944 12.3981C17.3081 12.3981 17.8056 11.9274 17.8056 11.3469C17.8056 10.7664 17.3081 10.2957 16.6944 10.2957C16.0808 10.2957 15.5833 10.7664 15.5833 11.3469C15.5833 11.9274 16.0808 12.3981 16.6944 12.3981Z" fill="#134373"/>
</svg>
