<svg width="52" height="52" viewBox="0 0 52 52" fill="none" xmlns="http://www.w3.org/2000/svg">
<rect width="52" height="52" rx="26" fill="#134373"/>
<g clip-path="url(#clip0_1379_5337)">
<path d="M33.3399 28.49L32.3399 26.83C32.1299 26.46 31.9399 25.76 31.9399 25.35V22.82C31.9399 20.47 30.5599 18.44 28.5699 17.49C28.0499 16.57 27.0899 16 25.9899 16C24.8999 16 23.9199 16.59 23.3999 17.52C21.4499 18.49 20.0999 20.5 20.0999 22.82V25.35C20.0999 25.76 19.9099 26.46 19.6999 26.82L18.6899 28.49C18.2899 29.16 18.1999 29.9 18.4499 30.58C18.6899 31.25 19.2599 31.77 19.9999 32.02C21.9399 32.68 23.9799 33 26.0199 33C28.0599 33 30.0999 32.68 32.0399 32.03C32.7399 31.8 33.2799 31.27 33.5399 30.58C33.7999 29.89 33.7299 29.13 33.3399 28.49Z" fill="white"/>
<path d="M28.8297 34.01C28.4097 35.17 27.2997 36 25.9997 36C25.2097 36 24.4297 35.68 23.8797 35.11C23.5597 34.81 23.3197 34.41 23.1797 34C23.3097 34.02 23.4397 34.03 23.5797 34.05C23.8097 34.08 24.0497 34.11 24.2897 34.13C24.8597 34.18 25.4397 34.21 26.0197 34.21C26.5897 34.21 27.1597 34.18 27.7197 34.13C27.9297 34.11 28.1397 34.1 28.3397 34.07C28.4997 34.05 28.6597 34.03 28.8297 34.01Z" fill="white"/>
</g>
<defs>
<clipPath id="clip0_1379_5337">
<rect width="24" height="24" fill="white" transform="translate(14 14)"/>
</clipPath>
</defs>
</svg>
