<svg width="52" height="52" viewBox="0 0 52 52" fill="none" xmlns="http://www.w3.org/2000/svg">
<rect width="52" height="52" rx="26" fill="#134373"/>
<g clip-path="url(#clip0_1379_5338)">
<path d="M26.0196 16.9102C22.7096 16.9102 20.0196 19.6002 20.0196 22.9102V25.8002C20.0196 26.4102 19.7596 27.3402 19.4496 27.8602L18.2996 29.7702C17.5896 30.9502 18.0796 32.2602 19.3796 32.7002C23.6896 34.1402 28.3396 34.1402 32.6496 32.7002C33.8596 32.3002 34.3896 30.8702 33.7296 29.7702L32.5796 27.8602C32.2796 27.3402 32.0196 26.4102 32.0196 25.8002V22.9102C32.0196 19.6102 29.3196 16.9102 26.0196 16.9102Z" stroke="white" stroke-width="1.5" stroke-miterlimit="10" stroke-linecap="round"/>
<path d="M27.8699 17.2004C27.5599 17.1104 27.2399 17.0404 26.9099 17.0004C25.9499 16.8804 25.0299 16.9504 24.1699 17.2004C24.4599 16.4604 25.1799 15.9404 26.0199 15.9404C26.8599 15.9404 27.5799 16.4604 27.8699 17.2004Z" stroke="white" stroke-width="1.5" stroke-miterlimit="10" stroke-linecap="round" stroke-linejoin="round"/>
<path d="M29.0195 33.0605C29.0195 34.7105 27.6695 36.0605 26.0195 36.0605C25.1995 36.0605 24.4395 35.7205 23.8995 35.1805C23.3595 34.6405 23.0195 33.8805 23.0195 33.0605" stroke="white" stroke-width="1.5" stroke-miterlimit="10"/>
</g>
<defs>
<clipPath id="clip0_1379_5338">
<rect width="24" height="24" fill="white" transform="translate(14 14)"/>
</clipPath>
</defs>
</svg>
