<svg width="24" height="24" viewBox="0 0 24 24" fill="none" xmlns="http://www.w3.org/2000/svg">
<path d="M15.2244 13.0893L15.2244 13.0893C14.3338 11.6999 12.8201 10.8721 11.1701 10.8721C9.52018 10.8721 8.00653 11.6999 7.11611 13.0892L7.11608 13.0893L4.63785 16.9554L4.63782 16.9554C4.3136 17.4611 4.16479 18.0423 4.20592 18.6418L4.20592 18.6419C4.24703 19.2413 4.47381 19.7965 4.86436 20.2538L15.2244 13.0893ZM15.2244 13.0893L17.7026 16.9551C17.7026 16.9551 17.7026 16.9552 17.7026 16.9552C18.0269 17.4613 18.1756 18.0423 18.1344 18.642C18.0931 19.2418 17.8662 19.797 17.4757 20.2537L15.2244 13.0893ZM8.13971 20.9668L8.13973 20.9668C10.0868 20.1281 12.3101 20.1358 14.2522 20.9898C14.6098 21.147 14.9858 21.2255 15.3639 21.2255C15.5695 21.2255 15.7777 21.2021 15.9855 21.1548L8.13971 20.9668ZM8.13971 20.9668L8.13209 20.9702M8.13971 20.9668L8.13209 20.9702M8.13209 20.9702L8.08794 20.9898C8.08755 20.99 8.08716 20.9901 8.08676 20.9903C7.53656 21.2318 6.93973 21.2885 6.35431 21.1547C5.76836 21.0207 5.25514 20.7105 4.86446 20.254L8.13209 20.9702ZM17.4756 20.2538C17.0848 20.7106 16.5716 21.0209 15.9858 21.1547L17.4756 20.2538Z" stroke="#134373" stroke-width="1.5"/>
<path d="M4.40484 11.9802L4.40556 11.9799C4.92217 11.7814 5.3316 11.3625 5.54398 10.7583L5.54401 10.7582C5.74731 10.1801 5.73629 9.50939 5.49014 8.86963L4.40484 11.9802ZM4.40484 11.9802C4.19241 12.062 3.97261 12.1011 3.75151 12.1011C2.88119 12.1011 1.93415 11.4824 1.51638 10.3994C0.986512 9.01963 1.58649 7.67849 2.60019 7.28875L2.60079 7.28852M4.40484 11.9802L2.60079 7.28852M2.60079 7.28852C3.11606 7.0899 3.7007 7.12629 4.26336 7.43208L2.60079 7.28852ZM4.26347 7.43214C4.80207 7.72505 5.24364 8.23013 5.49003 8.86935L4.26347 7.43214Z" stroke="#134373" stroke-width="1.5"/>
<path d="M12.0901 5.82581C12.0901 7.61555 10.8309 8.90074 9.48289 8.90074C8.13507 8.90074 6.87598 7.61563 6.87598 5.82581C6.87598 4.0353 8.13522 2.75 9.48289 2.75C10.8308 2.75 12.0901 4.03538 12.0901 5.82581Z" stroke="#134373" stroke-width="1.5"/>
<path d="M15.5049 9.87448L15.5175 9.87865C15.7246 9.94737 15.9352 9.98014 16.1458 9.98014C17.1313 9.98014 18.188 9.24569 18.6018 8.00083L18.6018 8.00073C18.8385 7.28926 18.8172 6.5544 18.5648 5.93094L18.5647 5.93081C18.302 5.28145 17.8327 4.84209 17.2562 4.65045L15.5049 9.87448ZM15.5049 9.87448C14.3751 9.48983 13.6662 8.052 14.1725 6.52864L14.1725 6.52854C14.4089 5.81702 14.8658 5.24113 15.4411 4.89275L15.4411 4.89274C16.0403 4.52988 16.6794 4.45881 17.2561 4.65043L15.5049 9.87448Z" stroke="#134373" stroke-width="1.5"/>
<path d="M21.8907 10.7363C21.0143 10.1026 19.5708 10.3213 18.6972 11.5009L21.8907 10.7363ZM21.8907 10.7363L21.9046 10.7466C22.7778 11.3933 22.998 12.8463 22.1206 14.0335C21.5724 14.7729 20.7716 15.1492 20.0429 15.1492C19.6287 15.1492 19.2388 15.0289 18.913 14.7875L18.9128 14.7874C18.0399 14.1411 17.8195 12.6882 18.6971 11.501L21.8907 10.7363Z" stroke="#134373" stroke-width="1.5"/>
</svg>
