<svg width="68" height="68" viewBox="0 0 68 68" fill="none" xmlns="http://www.w3.org/2000/svg">
<g opacity="0.3">
<path d="M34.0003 5.66666C26.577 5.66666 20.542 11.7017 20.542 19.125C20.542 26.4067 26.237 32.3 33.6603 32.555C33.887 32.5267 34.1137 32.5267 34.2837 32.555C34.3403 32.555 34.3687 32.555 34.4253 32.555C34.4537 32.555 34.4537 32.555 34.482 32.555C41.7353 32.3 47.4303 26.4067 47.4587 19.125C47.4587 11.7017 41.4237 5.66666 34.0003 5.66666Z" fill="#549CE3"/>
<path d="M48.3937 40.0917C40.4887 34.8217 27.597 34.8217 19.6354 40.0917C16.037 42.5 14.0537 45.7583 14.0537 49.2433C14.0537 52.7283 16.037 55.9583 19.607 58.3383C23.5737 61.0017 28.787 62.3333 34.0004 62.3333C39.2137 62.3333 44.427 61.0017 48.3937 58.3383C51.9637 55.93 53.947 52.7 53.947 49.1867C53.9187 45.7017 51.9637 42.4717 48.3937 40.0917Z" fill="#549CE3"/>
</g>
</svg>
