<svg width="34" height="35" viewBox="0 0 34 35" fill="none" xmlns="http://www.w3.org/2000/svg">
<path opacity="0.5" d="M10 1.36011H24C29.2467 1.36011 33.5 5.6134 33.5 10.8601V24.8601C33.5 30.1068 29.2467 34.3601 24 34.3601H10C4.75329 34.3601 0.5 30.1068 0.5 24.8601V10.8601C0.5 5.6134 4.75329 1.36011 10 1.36011Z" stroke="#CED3DE"/>
<g clip-path="url(#clip0_1763_4878)">
<path d="M21.9396 17.0003C21.9396 17.2304 21.8431 17.4605 21.6505 17.6359L15.5871 23.1563C15.2014 23.5075 14.5761 23.5075 14.1905 23.1563C13.805 22.8053 13.805 22.236 14.1905 21.8848L19.5557 17.0003L14.1907 12.1157C13.8052 11.7645 13.8052 11.1953 14.1907 10.8443C14.5763 10.493 15.2016 10.493 15.5873 10.8443L21.6507 16.3647C21.8433 16.5402 21.9396 16.7703 21.9396 17.0003V17.0003Z" fill="#0B0B0B"/>
</g>
<defs>
<clipPath id="clip0_1763_4878">
<rect width="12.8388" height="8.03819" fill="white" transform="matrix(0 -1 1 0 13.9014 23.4197)"/>
</clipPath>
</defs>
</svg>
