<svg width="24" height="25" viewBox="0 0 24 25" fill="none" xmlns="http://www.w3.org/2000/svg">
<path d="M12 16.6875C9.93 16.6875 8.25 15.0075 8.25 12.9375C8.25 10.8675 9.93 9.1875 12 9.1875C14.07 9.1875 15.75 10.8675 15.75 12.9375C15.75 15.0075 14.07 16.6875 12 16.6875ZM12 10.6875C10.76 10.6875 9.75 11.6975 9.75 12.9375C9.75 14.1775 10.76 15.1875 12 15.1875C13.24 15.1875 14.25 14.1775 14.25 12.9375C14.25 11.6975 13.24 10.6875 12 10.6875Z" fill="#5E5F60"/>
<path d="M15.21 23.1275C15 23.1275 14.79 23.0975 14.58 23.0475C13.96 22.8775 13.44 22.4875 13.11 21.9375L12.99 21.7375C12.4 20.7175 11.59 20.7175 11 21.7375L10.89 21.9275C10.56 22.4875 10.04 22.8875 9.42 23.0475C8.79 23.2175 8.14 23.1275 7.59 22.7975L5.87 21.8075C5.26 21.4575 4.82 20.8875 4.63 20.1975C4.45 19.5075 4.54 18.7975 4.89 18.1875C5.18 17.6775 5.26 17.2175 5.09 16.9275C4.92 16.6375 4.49 16.4675 3.9 16.4675C2.44 16.4675 1.25 15.2775 1.25 13.8175V12.0575C1.25 10.5975 2.44 9.40754 3.9 9.40754C4.49 9.40754 4.92 9.23754 5.09 8.94754C5.26 8.65754 5.19 8.19754 4.89 7.68754C4.54 7.07754 4.45 6.35754 4.63 5.67754C4.81 4.98754 5.25 4.41754 5.87 4.06754L7.6 3.07754C8.73 2.40754 10.22 2.79754 10.9 3.94754L11.02 4.14754C11.61 5.16754 12.42 5.16754 13.01 4.14754L13.12 3.95754C13.8 2.79754 15.29 2.40754 16.43 3.08754L18.15 4.07754C18.76 4.42754 19.2 4.99754 19.39 5.68754C19.57 6.37754 19.48 7.08754 19.13 7.69754C18.84 8.20754 18.76 8.66754 18.93 8.95754C19.1 9.24754 19.53 9.41754 20.12 9.41754C21.58 9.41754 22.77 10.6075 22.77 12.0675V13.8275C22.77 15.2875 21.58 16.4775 20.12 16.4775C19.53 16.4775 19.1 16.6475 18.93 16.9375C18.76 17.2275 18.83 17.6875 19.13 18.1975C19.48 18.8075 19.58 19.5275 19.39 20.2075C19.21 20.8975 18.77 21.4675 18.15 21.8175L16.42 22.8075C16.04 23.0175 15.63 23.1275 15.21 23.1275ZM12 19.4275C12.89 19.4275 13.72 19.9875 14.29 20.9775L14.4 21.1675C14.52 21.3775 14.72 21.5275 14.96 21.5875C15.2 21.6475 15.44 21.6175 15.64 21.4975L17.37 20.4975C17.63 20.3475 17.83 20.0975 17.91 19.7975C17.99 19.4975 17.95 19.1875 17.8 18.9275C17.23 17.9475 17.16 16.9375 17.6 16.1675C18.04 15.3975 18.95 14.9575 20.09 14.9575C20.73 14.9575 21.24 14.4475 21.24 13.8075V12.0475C21.24 11.4175 20.73 10.8975 20.09 10.8975C18.95 10.8975 18.04 10.4575 17.6 9.68754C17.16 8.91754 17.23 7.90754 17.8 6.92754C17.95 6.66754 17.99 6.35754 17.91 6.05754C17.83 5.75754 17.64 5.51754 17.38 5.35754L15.65 4.36754C15.22 4.10754 14.65 4.25754 14.39 4.69754L14.28 4.88754C13.71 5.87754 12.88 6.43754 11.99 6.43754C11.1 6.43754 10.27 5.87754 9.7 4.88754L9.59 4.68754C9.34 4.26754 8.78 4.11754 8.35 4.36754L6.62 5.36754C6.36 5.51754 6.16 5.76754 6.08 6.06754C6 6.36754 6.04 6.67754 6.19 6.93754C6.76 7.91754 6.83 8.92754 6.39 9.69754C5.95 10.4675 5.04 10.9075 3.9 10.9075C3.26 10.9075 2.75 11.4175 2.75 12.0575V13.8175C2.75 14.4475 3.26 14.9675 3.9 14.9675C5.04 14.9675 5.95 15.4075 6.39 16.1775C6.83 16.9475 6.76 17.9575 6.19 18.9375C6.04 19.1975 6 19.5075 6.08 19.8075C6.16 20.1075 6.35 20.3475 6.61 20.5075L8.34 21.4975C8.55 21.6275 8.8 21.6575 9.03 21.5975C9.27 21.5375 9.47 21.3775 9.6 21.1675L9.71 20.9775C10.28 19.9975 11.11 19.4275 12 19.4275Z" fill="#5E5F60"/>
</svg>
