<svg width="24" height="25" viewBox="0 0 24 25" fill="none" xmlns="http://www.w3.org/2000/svg">
<path d="M20.1 10.1574C18.29 10.1574 17.55 8.87744 18.45 7.30744C18.97 6.39744 18.66 5.23744 17.75 4.71744L16.02 3.72744C15.23 3.25744 14.21 3.53744 13.74 4.32744L13.63 4.51744C12.73 6.08744 11.25 6.08744 10.34 4.51744L10.23 4.32744C9.78 3.53744 8.76 3.25744 7.97 3.72744L6.24 4.71744C5.33 5.23744 5.02 6.40744 5.54 7.31744C6.45 8.87744 5.71 10.1574 3.9 10.1574C2.86 10.1574 2 11.0074 2 12.0574V13.8174C2 14.8574 2.85 15.7174 3.9 15.7174C5.71 15.7174 6.45 16.9974 5.54 18.5674C5.02 19.4774 5.33 20.6374 6.24 21.1574L7.97 22.1474C8.76 22.6174 9.78 22.3374 10.25 21.5474L10.36 21.3574C11.26 19.7874 12.74 19.7874 13.65 21.3574L13.76 21.5474C14.23 22.3374 15.25 22.6174 16.04 22.1474L17.77 21.1574C18.68 20.6374 18.99 19.4674 18.47 18.5674C17.56 16.9974 18.3 15.7174 20.11 15.7174C21.15 15.7174 22.01 14.8674 22.01 13.8174V12.0574C22 11.0174 21.15 10.1574 20.1 10.1574ZM12 16.1874C10.21 16.1874 8.75 14.7274 8.75 12.9374C8.75 11.1474 10.21 9.68744 12 9.68744C13.79 9.68744 15.25 11.1474 15.25 12.9374C15.25 14.7274 13.79 16.1874 12 16.1874Z" fill="#134373"/>
</svg>
