<svg width="20" height="13" viewBox="0 0 20 13" fill="none" xmlns="http://www.w3.org/2000/svg">
<path d="M1.23004 8.19855C2.07696 4.13156 5.61741 1.24183 9.59996 1.24183C13.5813 1.24183 17.1217 4.13156 17.9699 8.19855C18.0035 8.35993 18.0998 8.50136 18.2377 8.59172C18.3755 8.68208 18.5437 8.71397 18.705 8.68038C18.8664 8.64678 19.0078 8.55046 19.0982 8.41259C19.1886 8.27472 19.2205 8.1066 19.1869 7.94521C18.222 3.31941 14.186 0 9.59996 0C5.01389 0 0.977946 3.31941 0.0130463 7.94521C-0.0205477 8.1066 0.0113433 8.27472 0.101704 8.41259C0.192064 8.55046 0.333492 8.64678 0.494875 8.68038C0.656258 8.71397 0.824377 8.68208 0.962247 8.59172C1.10012 8.50136 1.19644 8.35993 1.23004 8.19855ZM9.58754 3.72548C10.7403 3.72548 11.8458 4.18341 12.6609 4.99851C13.476 5.81362 13.9339 6.91914 13.9339 8.07188C13.9339 9.22462 13.476 10.3301 12.6609 11.1452C11.8458 11.9604 10.7403 12.4183 9.58754 12.4183C8.4348 12.4183 7.32928 11.9604 6.51417 11.1452C5.69906 10.3301 5.24114 9.22462 5.24114 8.07188C5.24114 6.91914 5.69906 5.81362 6.51417 4.99851C7.32928 4.18341 8.4348 3.72548 9.58754 3.72548Z" fill="#5E5F60"/>
</svg>
