<svg width="263" height="140" viewBox="0 0 263 140" fill="none" xmlns="http://www.w3.org/2000/svg">
<path d="M130.187 0V140" stroke="#0B0B0B" stroke-width="1.30841"/>
<path d="M157.663 29.4392H142.616C148.753 29.4393 150.467 33.5826 150.467 35.9814V90.9347C149.812 108.484 145.233 112.523 142.616 112.523H165.513C155.046 109.907 151.775 98.0169 151.775 90.9347V34.0188L205.42 115.14V54.299C205.42 32.5975 210.13 29.4394 213.27 29.4392H189.719C200.841 29.4392 204.112 46.3345 204.112 54.299V100.748L157.663 29.4392Z" fill="#0B0B0B"/>
<path d="M58.2245 29.4392H43.1777C49.3143 29.4393 51.0282 33.5826 51.0282 35.9814V90.9347C50.374 108.484 45.7946 112.523 43.1777 112.523H66.0749C55.6076 109.907 52.3366 98.0169 52.3366 90.9347V34.0188L105.981 115.14V54.299C105.981 32.5975 110.691 29.4394 113.831 29.4392H90.2805C101.402 29.4392 104.673 46.3345 104.673 54.299V100.748L58.2245 29.4392Z" fill="#0B0B0B"/>
<rect width="262.991" height="23.5514" transform="translate(0 60.8411)" fill="white"/>
<path d="M7.77909 68.2991V69.3982H4.7305V77.458H3.63143V69.3982H0.589374V68.2991H7.77909ZM20.0897 68.2991H21.1888V77.458H20.0897V73.101H15.5561V77.458H14.457V68.2991H15.5561V72.0019H20.0897V68.2991ZM28.1268 77.458V68.2991H33.7465V69.3982H29.2259V72.0019H32.9287V73.101H29.2259V76.3589H33.7465V77.458H28.1268ZM49.0522 77.458V68.2991H50.2429L54.8158 75.4692V68.2991H55.9148V77.458H54.7307L50.1513 70.2879V77.458H49.0522ZM67.1022 77.6281C66.4828 77.6281 65.9006 77.506 65.3554 77.2617C64.8103 77.0131 64.3305 76.6708 63.9162 76.2346C63.5018 75.7985 63.1769 75.2948 62.9414 74.7234C62.7059 74.1477 62.5881 73.5328 62.5881 72.8786C62.5881 72.2244 62.7059 71.6116 62.9414 71.0403C63.1769 70.4645 63.5018 69.9586 63.9162 69.5225C64.3305 69.0864 64.8103 68.7462 65.3554 68.5019C65.9006 68.2533 66.4828 68.129 67.1022 68.129C67.7258 68.129 68.3103 68.2533 68.8554 68.5019C69.4006 68.7462 69.8803 69.0864 70.2947 69.5225C70.709 69.9586 71.0317 70.4645 71.2629 71.0403C71.4984 71.6116 71.6162 72.2244 71.6162 72.8786C71.6162 73.5328 71.4984 74.1477 71.2629 74.7234C71.0317 75.2948 70.709 75.7985 70.2947 76.2346C69.8803 76.6708 69.4006 77.0131 68.8554 77.2617C68.3103 77.506 67.7258 77.6281 67.1022 77.6281ZM67.1022 76.529C67.5775 76.529 68.0202 76.4331 68.4302 76.2412C68.8445 76.0493 69.2065 75.7854 69.5162 75.4496C69.8302 75.1094 70.0744 74.7212 70.2489 74.2851C70.4277 73.8446 70.5171 73.3758 70.5171 72.8786C70.5171 72.3814 70.4277 71.9125 70.2489 71.472C70.0701 71.0272 69.8236 70.639 69.5096 70.3075C69.2 69.9717 68.838 69.7079 68.4236 69.516C68.0137 69.3241 67.5732 69.2281 67.1022 69.2281C66.6268 69.2281 66.1819 69.3241 65.7676 69.516C65.3576 69.7079 64.9956 69.9739 64.6816 70.3141C64.3719 70.6499 64.1277 71.0381 63.9489 71.4786C63.7744 71.9147 63.6872 72.3814 63.6872 72.8786C63.6872 73.3801 63.7766 73.8512 63.9554 74.2917C64.1342 74.7322 64.3785 75.1203 64.6881 75.4561C65.0022 75.792 65.3641 76.0558 65.7741 76.2477C66.1884 76.4353 66.6311 76.529 67.1022 76.529ZM78.2574 77.458V68.2991H81.4761C81.9645 68.2991 82.405 68.4191 82.7976 68.6589C83.1945 68.8988 83.5085 69.2237 83.7396 69.6337C83.9751 70.0393 84.0929 70.4929 84.0929 70.9945C84.0929 71.435 84.0057 71.8362 83.8312 72.1982C83.6568 72.5602 83.4169 72.8633 83.1116 73.1075C82.8107 73.3474 82.4683 73.5131 82.0845 73.6047L84.3088 77.458H83.0396L80.8546 73.6963H79.3564V77.458H78.2574ZM79.3564 72.5973H81.3649C81.6614 72.5973 81.934 72.5253 82.1826 72.3814C82.4312 72.2331 82.6275 72.0346 82.7714 71.786C82.9197 71.5331 82.9938 71.2496 82.9938 70.9356C82.9938 70.6172 82.9197 70.3337 82.7714 70.0851C82.6275 69.8322 82.4312 69.6337 82.1826 69.4898C81.934 69.3415 81.6614 69.2674 81.3649 69.2674H79.3564V72.5973ZM97.833 68.2991V69.3982H94.7845V77.458H93.6854V69.3982H90.6433V68.2991H97.833ZM110.144 68.2991H111.243V77.458H110.144V73.101H105.61V77.458H104.511V68.2991H105.61V72.0019H110.144V68.2991ZM121.406 77.6281C120.913 77.6281 120.438 77.5518 119.98 77.3991C119.522 77.2421 119.121 77.0197 118.776 76.7318C118.436 76.444 118.194 76.1016 118.05 75.7047L119.077 75.3188C119.164 75.563 119.326 75.7767 119.561 75.9599C119.801 76.1387 120.082 76.2783 120.405 76.3786C120.728 76.4789 121.061 76.529 121.406 76.529C121.799 76.529 122.163 76.4658 122.499 76.3393C122.839 76.2085 123.114 76.0275 123.323 75.7963C123.532 75.5652 123.637 75.2948 123.637 74.9851C123.637 74.6667 123.528 74.4072 123.31 74.2066C123.092 74.0016 122.813 73.8403 122.472 73.7225C122.132 73.6004 121.777 73.5066 121.406 73.4412C120.774 73.3365 120.207 73.1882 119.705 72.9963C119.208 72.8001 118.813 72.5275 118.521 72.1786C118.233 71.8297 118.089 71.3695 118.089 70.7982C118.089 70.2661 118.242 69.8016 118.547 69.4047C118.857 69.0079 119.265 68.7004 119.771 68.4823C120.276 68.2642 120.822 68.1552 121.406 68.1552C121.89 68.1552 122.359 68.2315 122.813 68.3842C123.271 68.5325 123.674 68.7505 124.023 69.0384C124.372 69.3262 124.623 69.6773 124.775 70.0917L123.735 70.4711C123.648 70.2225 123.484 70.0088 123.244 69.83C123.009 69.6468 122.73 69.5072 122.407 69.4113C122.089 69.311 121.755 69.2608 121.406 69.2608C121.018 69.2564 120.656 69.3197 120.32 69.4505C119.984 69.5814 119.712 69.7624 119.502 69.9935C119.293 70.2247 119.188 70.4929 119.188 70.7982C119.188 71.1645 119.284 71.4459 119.476 71.6421C119.672 71.834 119.938 71.9779 120.274 72.0739C120.61 72.1698 120.987 72.2549 121.406 72.329C121.999 72.4293 122.549 72.5885 123.055 72.8066C123.561 73.0203 123.966 73.306 124.271 73.6636C124.581 74.0212 124.736 74.4617 124.736 74.9851C124.736 75.5172 124.581 75.9817 124.271 76.3786C123.966 76.7755 123.561 77.0829 123.055 77.301C122.549 77.5191 121.999 77.6281 121.406 77.6281ZM137.292 68.2991H138.391V77.458H137.292V73.101H132.758V77.458H131.659V68.2991H132.758V72.0019H137.292V68.2991ZM149.581 77.6281C148.962 77.6281 148.38 77.506 147.834 77.2617C147.289 77.0131 146.809 76.6708 146.395 76.2346C145.981 75.7985 145.656 75.2948 145.42 74.7234C145.185 74.1477 145.067 73.5328 145.067 72.8786C145.067 72.2244 145.185 71.6116 145.42 71.0403C145.656 70.4645 145.981 69.9586 146.395 69.5225C146.809 69.0864 147.289 68.7462 147.834 68.5019C148.38 68.2533 148.962 68.129 149.581 68.129C150.205 68.129 150.789 68.2533 151.334 68.5019C151.88 68.7462 152.359 69.0864 152.774 69.5225C153.188 69.9586 153.511 70.4645 153.742 71.0403C153.977 71.6116 154.095 72.2244 154.095 72.8786C154.095 73.5328 153.977 74.1477 153.742 74.7234C153.511 75.2948 153.188 75.7985 152.774 76.2346C152.359 76.6708 151.88 77.0131 151.334 77.2617C150.789 77.506 150.205 77.6281 149.581 77.6281ZM149.581 76.529C150.057 76.529 150.499 76.4331 150.909 76.2412C151.323 76.0493 151.685 75.7854 151.995 75.4496C152.309 75.1094 152.553 74.7212 152.728 74.2851C152.907 73.8446 152.996 73.3758 152.996 72.8786C152.996 72.3814 152.907 71.9125 152.728 71.472C152.549 71.0272 152.303 70.639 151.989 70.3075C151.679 69.9717 151.317 69.7079 150.903 69.516C150.493 69.3241 150.052 69.2281 149.581 69.2281C149.106 69.2281 148.661 69.3241 148.247 69.516C147.837 69.7079 147.475 69.9739 147.161 70.3141C146.851 70.6499 146.607 71.0381 146.428 71.4786C146.253 71.9147 146.166 72.3814 146.166 72.8786C146.166 73.3801 146.256 73.8512 146.434 74.2917C146.613 74.7322 146.857 75.1203 147.167 75.4561C147.481 75.792 147.843 76.0558 148.253 76.2477C148.667 76.4353 149.11 76.529 149.581 76.529ZM160.736 77.458V68.2991H163.955C164.444 68.2991 164.884 68.4191 165.277 68.6589C165.673 68.8988 165.987 69.2237 166.219 69.6337C166.454 70.0393 166.572 70.4929 166.572 70.9945C166.572 71.435 166.485 71.8362 166.31 72.1982C166.136 72.5602 165.896 72.8633 165.591 73.1075C165.29 73.3474 164.947 73.5131 164.563 73.6047L166.788 77.458H165.519L163.334 73.6963H161.835V77.458H160.736ZM161.835 72.5973H163.844C164.14 72.5973 164.413 72.5253 164.662 72.3814C164.91 72.2331 165.106 72.0346 165.25 71.786C165.399 71.5331 165.473 71.2496 165.473 70.9356C165.473 70.6172 165.399 70.3337 165.25 70.0851C165.106 69.8322 164.91 69.6337 164.662 69.4898C164.413 69.3415 164.14 69.2674 163.844 69.2674H161.835V72.5973ZM173.665 77.458V68.2991H179.285V69.3982H174.764V72.0019H178.467V73.101H174.764V76.3589H179.285V77.458H173.665ZM194.59 77.458V68.2991H195.781L200.354 75.4692V68.2991H201.453V77.458H200.269L195.69 70.2879V77.458H194.59ZM211.456 68.2991H212.784L216.114 77.458H214.95L214.269 75.587H209.971L209.297 77.458H208.126L211.456 68.2991ZM210.377 74.4879H213.864L212.117 69.7057L210.377 74.4879ZM222.671 77.458V68.2991H223.862L228.435 75.4692V68.2991H229.534V77.458H228.35L223.77 70.2879V77.458H222.671ZM236.469 77.458V68.2991H237.659L242.232 75.4692V68.2991H243.331V77.458H242.147L237.568 70.2879V77.458H236.469ZM255.88 68.2991H257.175L254.074 73.3169V77.458H252.975V73.3169L249.874 68.2991H251.169L253.524 72.1131L255.88 68.2991Z" fill="#0B0B0B"/>
</svg>
