<svg width="24" height="24" viewBox="0 0 24 24" fill="none" xmlns="http://www.w3.org/2000/svg">
<path d="M11.9989 3.62109C7.37883 3.62109 3.62012 7.3798 3.62012 11.9999C3.62012 16.6199 7.37883 20.3786 11.9989 20.3786C16.6189 20.3786 20.3776 16.6199 20.3776 11.9999C20.3776 7.3798 16.6189 3.62109 11.9989 3.62109ZM11.9989 4.91013C15.468 4.91013 18.3629 7.41487 18.9708 10.7108C18.5661 10.6485 16.1715 11.0925 14.3493 9.1506C13.3182 8.05174 11.9598 8.1244 11.9986 8.13269C11.099 8.13269 10.2643 8.49426 9.64853 9.15056C8.7181 10.1421 7.37161 10.7108 5.9544 10.7108H5.02693C5.63489 7.41487 8.52973 4.91013 11.9989 4.91013ZM5.42477 14.6532C7.92297 14.1274 10.3176 16.2214 10.05 18.8171C7.94502 18.2145 6.23803 16.6609 5.42477 14.6532ZM11.3199 19.0569C11.7573 15.5126 8.492 12.6283 5.05147 13.4166C4.95827 12.9587 4.90916 12.4849 4.90916 11.9999C5.33613 11.9319 8.32129 12.4487 10.5886 10.0326C11.3506 9.22047 12.6413 9.21415 13.4093 10.0327C15.6787 12.451 18.6514 11.9303 19.0886 11.9999C19.0886 12.4849 19.0395 12.9587 18.9463 13.4166C15.4988 12.6268 12.2414 15.5201 12.6779 19.0569C12.2389 19.0988 11.7933 19.1021 11.3199 19.0569ZM13.9478 18.8171C13.6798 16.2185 16.0777 14.1279 18.573 14.6532C17.7598 16.6609 16.0527 18.2145 13.9478 18.8171Z" fill="#134373"/>
<path d="M13.9325 12.6445C13.9325 11.5783 13.0652 10.7109 11.999 10.7109C10.9328 10.7109 10.0654 11.5783 10.0654 12.6445C10.0654 13.7107 10.9328 14.5781 11.999 14.5781C13.0652 14.5781 13.9325 13.7107 13.9325 12.6445ZM11.999 13.289C11.6436 13.289 11.3545 12.9999 11.3545 12.6445C11.3545 12.2891 11.6436 12 11.999 12C12.3544 12 12.6435 12.2891 12.6435 12.6445C12.6435 12.9999 12.3544 13.289 11.999 13.289Z" fill="#134373"/>
<path d="M19.768 4.23068C17.6847 2.14733 14.9255 1 11.9988 1C5.94206 1 0.999023 5.94342 0.999023 11.9998C0.999023 18.0566 5.94245 22.9996 11.9988 22.9996C14.9255 22.9996 17.6847 21.8523 19.768 19.7689C24.0776 15.4592 24.0791 8.54187 19.768 4.23068ZM11.9988 21.7106C6.64429 21.7106 2.28806 17.3543 2.28806 11.9998C2.28806 6.64526 6.64429 2.28904 11.9988 2.28904C17.3534 2.28904 21.7096 6.64526 21.7096 11.9998C21.7096 17.3543 17.3534 21.7106 11.9988 21.7106Z" fill="#134373"/>
</svg>
