<svg width="13" height="12" viewBox="0 0 13 12" fill="none" xmlns="http://www.w3.org/2000/svg">
<path d="M12.4687 4.60311C12.3902 4.36012 12.1746 4.18754 11.9197 4.16456L8.45613 3.85007L7.08656 0.64445C6.98558 0.409519 6.75559 0.257446 6.50006 0.257446C6.24453 0.257446 6.01454 0.409519 5.91356 0.644999L4.54399 3.85007L1.07991 4.16456C0.825385 4.18809 0.610414 4.36012 0.531402 4.60311C0.45239 4.8461 0.525359 5.11261 0.7179 5.28062L3.33592 7.57663L2.56392 10.9773C2.50744 11.2273 2.60448 11.4858 2.81195 11.6357C2.92346 11.7163 3.05393 11.7573 3.18549 11.7573C3.29893 11.7573 3.41145 11.7267 3.51244 11.6663L6.50006 9.88071L9.48659 11.6663C9.70513 11.7978 9.98062 11.7858 10.1876 11.6357C10.3952 11.4853 10.4921 11.2268 10.4356 10.9773L9.66365 7.57663L12.2817 5.28107C12.4742 5.11261 12.5477 4.84655 12.4687 4.60311Z" fill="#FFC107"/>
</svg>
