<svg width="24" height="25" viewBox="0 0 24 25" fill="none" xmlns="http://www.w3.org/2000/svg">
<path d="M1.9707 6.79019V5.93019C1.9707 3.31019 3.9207 2.12019 6.3107 3.29019L10.7507 5.47019C11.7107 5.94019 12.5007 7.19019 12.5007 8.25019V22.8402H4.0807C2.9207 22.8402 1.9707 21.9102 1.9707 20.7702V10.8602" stroke="black" stroke-width="1.5" stroke-linecap="round" stroke-linejoin="round"/>
<path d="M21.97 15.8998V19.6798C21.97 21.8398 20.97 22.8398 18.81 22.8398H12.5V11.2598L12.97 11.3598L17.47 12.3698L19.5 12.8198C20.82 13.1098 21.9 13.7898 21.96 15.7098C21.97 15.7698 21.97 15.8298 21.97 15.8998Z" stroke="black" stroke-width="1.5" stroke-linecap="round" stroke-linejoin="round"/>
<path d="M5.5 9.83984H8.97" stroke="black" stroke-width="1.5" stroke-linecap="round" stroke-linejoin="round"/>
<path d="M5.5 13.8398H8.97" stroke="black" stroke-width="1.5" stroke-linecap="round" stroke-linejoin="round"/>
<path d="M17.4707 12.3694V15.5894C17.4707 16.8294 16.4607 17.8394 15.2207 17.8394C13.9807 17.8394 12.9707 16.8294 12.9707 15.5894V11.3594L17.4707 12.3694Z" stroke="black" stroke-width="1.5" stroke-linecap="round" stroke-linejoin="round"/>
<path d="M21.9607 15.7101C21.9007 16.8901 20.9207 17.8401 19.7207 17.8401C18.4807 17.8401 17.4707 16.8301 17.4707 15.5901V12.3701L19.5007 12.8201C20.8207 13.1101 21.9007 13.7901 21.9607 15.7101Z" stroke="black" stroke-width="1.5" stroke-linecap="round" stroke-linejoin="round"/>
</svg>
