<svg width="74" height="74" viewBox="0 0 74 74" fill="none" xmlns="http://www.w3.org/2000/svg">
<path d="M37.016 0.323242C16.805 0.323242 0.323242 16.805 0.323242 37.016C0.323242 57.2269 16.805 73.6761 37.016 73.6761C57.2269 73.6761 73.6761 57.2269 73.6761 37.016C73.6787 36.5755 73.5939 36.1389 73.4268 35.7313C73.2596 35.3238 73.0133 34.9534 72.7021 34.6417C72.391 34.3299 72.0211 34.0829 71.6139 33.9149C71.2067 33.7469 70.7702 33.6614 70.3298 33.6631C69.8915 33.6648 69.4578 33.7529 69.0536 33.9224C68.6494 34.0919 68.2826 34.3395 67.9742 34.6509C67.6658 34.9623 67.4219 35.3315 67.2563 35.7373C67.0908 36.1432 67.0069 36.5777 67.0094 37.016C67.0094 53.624 53.624 67.0095 37.016 67.0095C20.4079 67.0095 6.98991 53.624 6.98991 37.016C6.98991 20.4079 20.4079 6.98991 37.016 6.98991C37.8955 6.98648 38.738 6.63557 39.36 6.01363C39.9819 5.39169 40.3328 4.54914 40.3363 3.6696C40.338 3.23186 40.2535 2.79807 40.0875 2.39299C39.9216 1.98792 39.6775 1.61949 39.3692 1.30875C39.0609 0.998014 38.6943 0.751047 38.2906 0.581953C37.8868 0.412859 37.4537 0.324949 37.016 0.323242ZM49.6657 2.82975C48.3645 2.84235 47.1357 3.61942 46.6123 4.90006C45.9097 6.60559 46.7206 8.55765 48.4287 9.25554C48.4678 9.27192 48.493 9.29333 48.5257 9.30719C50.2312 10.0291 52.1997 9.22152 52.9072 7.51032C53.6127 5.81161 52.8077 3.86237 51.1103 3.15484C51.0625 3.13468 51.0096 3.10067 50.9671 3.08303C50.5408 2.90741 50.0995 2.82534 49.6657 2.82975ZM60.512 10.0433C59.6336 10.0505 58.7939 10.4031 58.1748 11.0263C56.8661 12.3293 56.8661 14.45 58.1748 15.7529C58.2025 15.7806 58.2189 15.797 58.2466 15.8247C59.5427 17.1402 61.6635 17.1527 62.9732 15.8512C64.2819 14.5483 64.2819 12.4275 62.9732 11.1246C62.9392 11.0906 62.9102 11.0604 62.8762 11.0276C62.2512 10.3983 61.399 10.044 60.512 10.0433ZM37.016 13.6631C36.5755 13.6605 36.1389 13.7452 35.7313 13.9124C35.3238 14.0796 34.9534 14.3259 34.6417 14.637C34.3299 14.9482 34.0829 15.3181 33.9149 15.7253C33.7469 16.1325 33.6614 16.569 33.6631 17.0094V37.016C33.6649 37.6346 33.8387 38.2406 34.1653 38.766C34.4918 39.2915 34.9581 39.7157 35.512 39.9912L48.8454 46.6579C49.2376 46.8545 49.6649 46.9717 50.1026 47.0029C50.5402 47.034 50.9798 46.9784 51.3959 46.8393C51.812 46.7002 52.1966 46.4803 52.5276 46.1922C52.8586 45.9041 53.1294 45.5535 53.3245 45.1605C53.5212 44.7682 53.6384 44.341 53.6695 43.9033C53.7007 43.4656 53.6451 43.0261 53.506 42.61C53.3668 42.1938 53.1469 41.8092 52.8588 41.4783C52.5707 41.1473 52.2201 40.8765 51.8272 40.6813L40.3363 34.9456V17.0094C40.338 16.5717 40.2535 16.1379 40.0875 15.7328C39.9216 15.3278 39.6775 14.9593 39.3692 14.6486C39.0609 14.3379 38.6943 14.0909 38.2906 13.9218C37.8868 13.7527 37.4537 13.6648 37.016 13.6631ZM67.7972 20.8311C67.3608 20.8285 66.9167 20.9117 66.4886 21.0915C64.7771 21.799 63.9698 23.7675 64.6917 25.473C64.7081 25.5133 64.7295 25.536 64.7434 25.57C65.4412 27.2774 67.3933 28.0955 69.0989 27.3929C70.8063 26.6951 71.6244 24.7429 70.9218 23.0374C70.9029 22.9921 70.8865 22.9543 70.8701 22.914C70.3468 21.6232 69.1063 20.8386 67.7972 20.8311Z" fill="#134373"/>
</svg>
