<svg width="38" height="13" viewBox="0 0 38 13" fill="none" xmlns="http://www.w3.org/2000/svg">
<path d="M16.4669 12.8124H13.3887L15.314 0.228027H18.3921L16.4669 12.8124Z" fill="#00579F"/>
<path d="M27.6256 0.535766C27.0184 0.281139 26.0554 0 24.8646 0C21.8247 0 19.684 1.71352 19.6709 4.16335C19.6457 5.97082 21.2036 6.97473 22.3688 7.5774C23.5597 8.19324 23.9645 8.5952 23.9645 9.14413C23.9524 9.98719 23.0022 10.3758 22.1159 10.3758C20.8869 10.3758 20.2284 10.1754 19.2277 9.70641L18.8224 9.50534L18.3916 12.3303C19.1136 12.6779 20.4437 12.9865 21.8247 13C25.0546 13 27.1574 11.313 27.1823 8.70232C27.1946 7.26975 26.372 6.17207 24.5985 5.27509C23.5218 4.69929 22.8625 4.31103 22.8625 3.72189C22.8751 3.1863 23.4201 2.63772 24.6355 2.63772C25.6362 2.61085 26.3715 2.86513 26.9285 3.11957L27.2069 3.2532L27.6256 0.535766Z" fill="#00579F"/>
<path d="M31.7167 8.35419C31.9702 7.63123 32.9457 4.83319 32.9457 4.83319C32.9329 4.86006 33.1987 4.09689 33.3507 3.62838L33.5658 4.71273C33.5658 4.71273 34.1487 7.725 34.2753 8.35419C33.7942 8.35419 32.3247 8.35419 31.7167 8.35419ZM35.5164 0.228027H33.1354C32.4011 0.228027 31.8433 0.45543 31.5265 1.27216L26.9541 12.8122H30.184C30.184 12.8122 30.7158 11.259 30.8301 10.9245C31.1844 10.9245 34.3265 10.9245 34.7823 10.9245C34.8707 11.3663 35.1496 12.8122 35.1496 12.8122H37.9998L35.5164 0.228027Z" fill="#00579F"/>
<path d="M10.8177 0.228027L7.80311 8.80935L7.47368 7.06895C6.91634 5.06077 5.16839 2.87892 3.21777 1.79404L5.97907 12.799H9.23426L14.0728 0.228027H10.8177Z" fill="#00579F"/>
<path d="M5.0033 0.228027H0.0506674L0 0.482298C3.86336 1.5266 6.42199 4.04386 7.47322 7.06949L6.39657 1.28586C6.21932 0.48212 5.6746 0.25454 5.0033 0.228027Z" fill="#FAA61A"/>
</svg>
